<svg width="23" height="23" viewBox="0 0 23 23" fill="none" xmlns="http://www.w3.org/2000/svg">
<rect width="23" height="23" rx="11.5" fill="#778DA9"/>
<path d="M3.37109 13.6094V12.1445H1.89844V11.2734H3.37109V9.80078H4.23828V11.2734H5.70312V12.1445H4.23828V13.6094H3.37109ZM9.33203 13.793C9.33203 13.8711 9.3151 13.9258 9.28125 13.957C9.25 13.9857 9.19531 14 9.11719 14H8.3125C8.23438 14 8.17839 13.9857 8.14453 13.957C8.11328 13.9258 8.09766 13.8711 8.09766 13.793V9.70312L7.55469 9.97656C7.5026 10.0052 7.45573 10.0169 7.41406 10.0117C7.33333 9.9987 7.24479 9.97786 7.14844 9.94922C7.05469 9.92057 6.95052 9.88151 6.83594 9.83203C6.79688 9.80859 6.77344 9.78776 6.76562 9.76953C6.75521 9.7513 6.75521 9.72135 6.76562 9.67969C6.82552 9.45052 6.89714 9.26302 6.98047 9.11719C7.00651 9.08073 7.04427 9.05078 7.09375 9.02734L8.58594 8.27344H9.33203V13.793ZM12.6211 14.0977C11.9154 14.0977 11.3919 13.8633 11.0508 13.3945C10.7122 12.9258 10.543 12.224 10.543 11.2891C10.543 10.3177 10.7266 9.57812 11.0938 9.07031C11.4609 8.5599 12.0065 8.30469 12.7305 8.30469C13.4206 8.30469 13.931 8.54297 14.2617 9.01953C14.5951 9.49609 14.7617 10.2096 14.7617 11.1602C14.7617 11.7148 14.6914 12.2148 14.5508 12.6602C14.4102 13.1029 14.1823 13.4531 13.8672 13.7109C13.5547 13.9688 13.1393 14.0977 12.6211 14.0977ZM12.6602 13.1133C12.9544 13.1133 13.168 12.9518 13.3008 12.6289C13.4362 12.306 13.5039 11.8294 13.5039 11.1992C13.5039 10.569 13.4375 10.0938 13.3047 9.77344C13.1745 9.45052 12.9648 9.28906 12.6758 9.28906C12.3685 9.28906 12.1458 9.45573 12.0078 9.78906C11.8698 10.1198 11.8008 10.6094 11.8008 11.2578C11.8008 11.8698 11.8685 12.332 12.0039 12.6445C12.1419 12.957 12.3607 13.1133 12.6602 13.1133ZM17.582 14.0977C16.8763 14.0977 16.3529 13.8633 16.0117 13.3945C15.6732 12.9258 15.5039 12.224 15.5039 11.2891C15.5039 10.3177 15.6875 9.57812 16.0547 9.07031C16.4219 8.5599 16.9674 8.30469 17.6914 8.30469C18.3815 8.30469 18.8919 8.54297 19.2227 9.01953C19.556 9.49609 19.7227 10.2096 19.7227 11.1602C19.7227 11.7148 19.6523 12.2148 19.5117 12.6602C19.3711 13.1029 19.1432 13.4531 18.8281 13.7109C18.5156 13.9688 18.1003 14.0977 17.582 14.0977ZM17.6211 13.1133C17.9154 13.1133 18.1289 12.9518 18.2617 12.6289C18.3971 12.306 18.4648 11.8294 18.4648 11.1992C18.4648 10.569 18.3984 10.0938 18.2656 9.77344C18.1354 9.45052 17.9258 9.28906 17.6367 9.28906C17.3294 9.28906 17.1068 9.45573 16.9688 9.78906C16.8307 10.1198 16.7617 10.6094 16.7617 11.2578C16.7617 11.8698 16.8294 12.332 16.9648 12.6445C17.1029 12.957 17.3216 13.1133 17.6211 13.1133Z" fill="white"/>
</svg>
