<svg width="20" height="24" viewBox="0 0 20 24" fill="none" xmlns="http://www.w3.org/2000/svg">
<path d="M17.1416 18.3671V18.4721C17.1356 18.4373 17.1318 18.4023 17.1303 18.3671H17.1416ZM0.761563 8.59082C0.765313 8.60207 0.772813 8.61332 0.776563 8.62457H0.757812C0.757812 8.61332 0.761563 8.60207 0.761563 8.59082Z" fill="#1D2D44"/>
<path d="M19.8749 14.9961C19.8749 18.0224 17.3136 20.2049 16.4999 20.8236V16.7774C16.8642 16.2494 17.084 15.6353 17.1374 14.9961C17.1374 14.1749 16.4174 13.0686 15.7161 11.9999C15.1349 11.1074 14.5874 10.2636 14.4074 9.53987C14.0324 8.03612 14.3399 5.67361 15.1986 3.52487C15.7086 2.23487 16.5374 1.79237 17.1336 1.81112C17.4019 1.82477 17.6591 1.92273 17.8685 2.09106C18.0779 2.25939 18.2289 2.4895 18.2999 2.74862C18.5024 3.35987 18.1761 4.33862 17.7974 5.47486C17.3924 6.68236 16.9349 8.05861 17.1336 9.05986C17.2761 9.78736 17.7074 10.2824 18.2061 10.8561C18.9861 11.7599 19.8749 12.7836 19.8749 14.9961Z" fill="#1D2D44"/>
<path d="M17.1303 18.3676C17.0825 17.8235 16.9443 17.2912 16.7216 16.7926C16.6616 16.6651 16.5978 16.5338 16.5266 16.4026C15.8516 15.1613 14.4603 13.7138 11.5803 12.7501C11.5756 12.7478 11.5705 12.7466 11.5653 12.7463C10.8758 12.3825 10.2702 11.8782 9.78773 11.2659C9.30522 10.6535 8.95649 9.9468 8.76406 9.19133C8.70945 8.99006 8.66564 8.78602 8.63281 8.58008C8.62683 8.59579 8.61929 8.61087 8.61031 8.62508H0.757806C0.754056 8.64758 0.754056 8.67008 0.750306 8.69633C0.731556 8.85383 0.705306 9.05258 0.682806 9.28508C0.467181 11.4582 0.210306 16.6932 1.87531 21.9492V24.0001H14.2503C14.3516 23.9851 16.5153 23.6288 17.0253 20.0288C17.0521 19.8724 17.0709 19.7147 17.0816 19.5563C17.1078 19.3126 17.1228 19.0501 17.1303 18.7763C17.1341 18.6788 17.1416 18.5776 17.1416 18.4726C17.1356 18.4379 17.1318 18.4028 17.1303 18.3676Z" fill="#1D2D44"/>
<path d="M17.1411 18.7764H17.1299C17.1336 18.6789 17.1411 18.5777 17.1411 18.4727C17.1481 18.5738 17.1481 18.6753 17.1411 18.7764Z" fill="#1D2D44"/>
<path d="M3.0375 3.0375L0.3375 5.7375L0 0L3.0375 3.0375ZM9.39375 0L9.0525 5.7525L6.34875 3.04875L9.39375 0Z" fill="#1D2D44"/>
<path d="M9.36402 6.90734C9.36525 7.70771 9.1585 8.49467 8.76402 9.19109C8.67828 9.34315 8.58309 9.48968 8.47902 9.62984C8.05689 10.217 7.50385 10.6978 6.8637 11.0341C6.22356 11.3705 5.51389 11.5532 4.7909 11.5677C4.06791 11.5823 3.35146 11.4283 2.6983 11.118C2.04513 10.8076 1.47319 10.3495 1.02777 9.77984C0.900955 9.6234 0.785652 9.45796 0.682774 9.28484C0.255834 8.56526 0.0304497 7.74404 0.0302734 6.90734C0.0302843 6.36586 0.126793 5.82871 0.315274 5.32109V5.30609C0.689059 4.28827 1.40487 3.43194 2.34027 2.88359C2.45629 2.81371 2.57652 2.75109 2.70027 2.69609C3.32427 2.39981 4.00638 2.24609 4.69715 2.24609C5.38791 2.24609 6.07002 2.39981 6.69402 2.69609C6.81778 2.75109 6.93801 2.81371 7.05402 2.88359C7.98942 3.43194 8.70524 4.28827 9.07902 5.30609V5.32109C9.2675 5.82871 9.36401 6.36586 9.36402 6.90734Z" fill="#1D2D44"/>
<path d="M0.7575 8.625C0.75375 8.6475 0.75375 8.67 0.75 8.69625V8.625H0.7575ZM5.625 23.625C5.62527 23.7508 5.61397 23.8763 5.59125 24H1.15875C1.13603 23.8763 1.12473 23.7508 1.125 23.625C1.12473 23.1415 1.28032 22.6707 1.56868 22.2826C1.85705 21.8944 2.26284 21.6096 2.72587 21.4703C3.1889 21.3309 3.6845 21.3445 4.13918 21.5091C4.59385 21.6736 4.98339 21.9804 5.25 22.3837C5.4962 22.7507 5.62681 23.1831 5.625 23.625Z" fill="#1D2D44"/>
<path d="M9.37502 23.6251C9.37529 23.7509 9.36399 23.8764 9.34127 24.0001H4.90877C4.88605 23.8764 4.87475 23.7509 4.87502 23.6251C4.87321 23.1832 5.00382 22.7509 5.25002 22.3839C5.51663 21.9805 5.90617 21.6738 6.36084 21.5092C6.81552 21.3447 7.31112 21.3311 7.77415 21.4704C8.23718 21.6097 8.64297 21.8946 8.93133 22.2827C9.2197 22.6708 9.37529 23.1416 9.37502 23.6251Z" fill="#1D2D44"/>
</svg>
