<svg width="16" height="16" viewBox="0 0 16 16" fill="none" xmlns="http://www.w3.org/2000/svg">
<rect width="16" height="16" rx="8" fill="#778DA9"/>
<path fill-rule="evenodd" clip-rule="evenodd" d="M11.5142 8.69515C11.2502 8.55222 11.0863 8.28594 11.0863 7.99993C11.0863 7.71406 11.2502 7.44778 11.5134 7.30499C11.7835 7.15902 11.8959 6.85572 11.7805 6.58388C11.6358 6.24049 11.4388 5.91976 11.1964 5.63048C11.0032 5.40015 10.6677 5.33983 10.3975 5.48674C10.1344 5.63048 9.8065 5.63091 9.54254 5.48782C9.27934 5.34474 9.11619 5.07804 9.11697 4.79151C9.11697 4.4984 8.89378 4.25514 8.58519 4.21319C8.19675 4.16035 7.80222 4.16071 7.41389 4.21427C7.10606 4.25651 6.88289 4.49963 6.88365 4.79216C6.88365 5.07833 6.72048 5.34488 6.4573 5.48782C6.19332 5.63075 5.86626 5.63046 5.6023 5.48688C5.33219 5.33997 4.99665 5.40058 4.80349 5.63091C4.68252 5.77545 4.57271 5.92794 4.47488 6.0872C4.37714 6.24628 4.29172 6.41301 4.21938 6.58249C4.10317 6.85476 4.21554 7.1585 4.48565 7.30484C4.74962 7.44763 4.91354 7.71404 4.91354 7.99991C4.91354 8.28579 4.74962 8.55198 4.48642 8.69499C4.21631 8.84098 4.10395 9.14412 4.21938 9.41589C4.36382 9.75867 4.56059 10.0799 4.80349 10.3694C4.99665 10.5997 5.33219 10.66 5.6023 10.5131C5.86551 10.3694 6.19334 10.3691 6.4573 10.512C6.72048 10.6551 6.88365 10.9218 6.88365 11.2083C6.88287 11.5014 7.10681 11.7446 7.41465 11.7867C7.60707 11.8128 7.80124 11.826 7.99567 11.826C8.19269 11.826 8.3897 11.8125 8.58593 11.7856C8.89377 11.7432 9.11693 11.5003 9.11693 11.2078C9.11616 10.9215 9.27931 10.6549 9.54251 10.512C9.80647 10.3691 10.1335 10.3694 10.3975 10.5129C10.6676 10.6599 11.0032 10.5994 11.1963 10.3689C11.3172 10.2244 11.427 10.0719 11.5249 9.91277C11.6219 9.75371 11.7089 9.58696 11.7804 9.41734C11.8967 9.14507 11.7843 8.84126 11.5142 8.69515ZM9.04693 8.56827C8.88608 8.83115 8.6252 9.01928 8.31276 9.09785C8.00109 9.1764 7.67478 9.13611 7.39542 8.9842C6.81824 8.67084 6.61969 7.97446 6.95291 7.43158C7.17609 7.06743 7.58397 6.86359 8.00184 6.86359C8.20732 6.86359 8.41435 6.91249 8.60442 7.01564C9.1816 7.32893 9.38015 8.02552 9.04693 8.56827Z" fill="#EEF4ED"/>
</svg>
