<svg id="visual" viewBox="0 0 900 450" width="900" height="450" xmlns="http://www.w3.org/2000/svg" xmlns:xlink="http://www.w3.org/1999/xlink" version="1.1"><rect x="0" y="0" width="900" height="450" fill="#3e5c76"></rect><defs><linearGradient id="grad1_0" x1="50%" y1="0%" x2="100%" y2="100%"><stop offset="10%" stop-color="#f0ebd8" stop-opacity="1"></stop><stop offset="90%" stop-color="#f0ebd8" stop-opacity="1"></stop></linearGradient></defs><defs><linearGradient id="grad1_1" x1="50%" y1="0%" x2="100%" y2="100%"><stop offset="10%" stop-color="#f0ebd8" stop-opacity="1"></stop><stop offset="90%" stop-color="#d1d7c3" stop-opacity="1"></stop></linearGradient></defs><defs><linearGradient id="grad1_2" x1="50%" y1="0%" x2="100%" y2="100%"><stop offset="10%" stop-color="#b1c4b1" stop-opacity="1"></stop><stop offset="90%" stop-color="#d1d7c3" stop-opacity="1"></stop></linearGradient></defs><defs><linearGradient id="grad1_3" x1="50%" y1="0%" x2="100%" y2="100%"><stop offset="10%" stop-color="#b1c4b1" stop-opacity="1"></stop><stop offset="90%" stop-color="#91b0a4" stop-opacity="1"></stop></linearGradient></defs><defs><linearGradient id="grad1_4" x1="50%" y1="0%" x2="100%" y2="100%"><stop offset="10%" stop-color="#739c99" stop-opacity="1"></stop><stop offset="90%" stop-color="#91b0a4" stop-opacity="1"></stop></linearGradient></defs><defs><linearGradient id="grad1_5" x1="50%" y1="0%" x2="100%" y2="100%"><stop offset="10%" stop-color="#739c99" stop-opacity="1"></stop><stop offset="90%" stop-color="#5a878f" stop-opacity="1"></stop></linearGradient></defs><defs><linearGradient id="grad1_6" x1="50%" y1="0%" x2="100%" y2="100%"><stop offset="10%" stop-color="#487284" stop-opacity="1"></stop><stop offset="90%" stop-color="#5a878f" stop-opacity="1"></stop></linearGradient></defs><defs><linearGradient id="grad1_7" x1="50%" y1="0%" x2="100%" y2="100%"><stop offset="10%" stop-color="#487284" stop-opacity="1"></stop><stop offset="90%" stop-color="#3e5c76" stop-opacity="1"></stop></linearGradient></defs><defs><linearGradient id="grad2_0" x1="0%" y1="0%" x2="50%" y2="100%"><stop offset="10%" stop-color="#f0ebd8" stop-opacity="1"></stop><stop offset="90%" stop-color="#f0ebd8" stop-opacity="1"></stop></linearGradient></defs><defs><linearGradient id="grad2_1" x1="0%" y1="0%" x2="50%" y2="100%"><stop offset="10%" stop-color="#d1d7c3" stop-opacity="1"></stop><stop offset="90%" stop-color="#f0ebd8" stop-opacity="1"></stop></linearGradient></defs><defs><linearGradient id="grad2_2" x1="0%" y1="0%" x2="50%" y2="100%"><stop offset="10%" stop-color="#d1d7c3" stop-opacity="1"></stop><stop offset="90%" stop-color="#b1c4b1" stop-opacity="1"></stop></linearGradient></defs><defs><linearGradient id="grad2_3" x1="0%" y1="0%" x2="50%" y2="100%"><stop offset="10%" stop-color="#91b0a4" stop-opacity="1"></stop><stop offset="90%" stop-color="#b1c4b1" stop-opacity="1"></stop></linearGradient></defs><defs><linearGradient id="grad2_4" x1="0%" y1="0%" x2="50%" y2="100%"><stop offset="10%" stop-color="#91b0a4" stop-opacity="1"></stop><stop offset="90%" stop-color="#739c99" stop-opacity="1"></stop></linearGradient></defs><defs><linearGradient id="grad2_5" x1="0%" y1="0%" x2="50%" y2="100%"><stop offset="10%" stop-color="#5a878f" stop-opacity="1"></stop><stop offset="90%" stop-color="#739c99" stop-opacity="1"></stop></linearGradient></defs><defs><linearGradient id="grad2_6" x1="0%" y1="0%" x2="50%" y2="100%"><stop offset="10%" stop-color="#5a878f" stop-opacity="1"></stop><stop offset="90%" stop-color="#487284" stop-opacity="1"></stop></linearGradient></defs><defs><linearGradient id="grad2_7" x1="0%" y1="0%" x2="50%" y2="100%"><stop offset="10%" stop-color="#3e5c76" stop-opacity="1"></stop><stop offset="90%" stop-color="#487284" stop-opacity="1"></stop></linearGradient></defs><g transform="translate(900, 0)"><path d="M0 405C-66.5 387.6 -133 370.2 -195.5 338.6C-258 307 -316.5 261.3 -350.7 202.5C-385 143.7 -395 71.9 -405 0L0 0Z" fill="#42677d"></path><path d="M0 354.4C-58.2 339.1 -116.4 323.9 -171.1 296.3C-225.7 268.7 -276.9 228.6 -306.9 177.2C-336.9 125.7 -345.6 62.9 -354.4 0L0 0Z" fill="#507d89"></path><path d="M0 303.8C-49.9 290.7 -99.8 277.6 -146.6 254C-193.5 230.3 -237.4 196 -263.1 151.9C-288.7 107.8 -296.2 53.9 -303.7 0L0 0Z" fill="#669294"></path><path d="M0 253.1C-41.6 242.2 -83.1 231.4 -122.2 211.6C-161.2 191.9 -197.8 163.3 -219.2 126.6C-240.6 89.8 -246.9 44.9 -253.1 0L0 0Z" fill="#82a69e"></path><path d="M0 202.5C-33.3 193.8 -66.5 185.1 -97.7 169.3C-129 153.5 -158.2 130.6 -175.4 101.3C-192.5 71.9 -197.5 35.9 -202.5 0L0 0Z" fill="#a1baaa"></path><path d="M0 151.9C-24.9 145.3 -49.9 138.8 -73.3 127C-96.7 115.1 -118.7 98 -131.5 75.9C-144.4 53.9 -148.1 26.9 -151.9 0L0 0Z" fill="#c1ceb9"></path><path d="M0 101.3C-16.6 96.9 -33.3 92.5 -48.9 84.7C-64.5 76.8 -79.1 65.3 -87.7 50.6C-96.2 35.9 -98.7 18 -101.2 0L0 0Z" fill="#e1e1cd"></path><path d="M0 50.6C-8.3 48.4 -16.6 46.3 -24.4 42.3C-32.2 38.4 -39.6 32.7 -43.8 25.3C-48.1 18 -49.4 9 -50.6 0L0 0Z" fill="#f0ebd8"></path></g><g transform="translate(0, 450)"><path d="M0 -405C79.7 -399.5 159.4 -394.1 202.5 -350.7C245.6 -307.4 252.1 -226.3 279.7 -161.5C307.4 -96.7 356.2 -48.4 405 0L0 0Z" fill="#42677d"></path><path d="M0 -354.4C69.7 -349.6 139.5 -344.8 177.2 -306.9C214.9 -269 220.6 -198 244.8 -141.3C269 -84.6 311.7 -42.3 354.4 0L0 0Z" fill="#507d89"></path><path d="M0 -303.7C59.8 -299.6 119.6 -295.5 151.9 -263.1C184.2 -230.6 189.1 -169.7 209.8 -121.1C230.5 -72.6 267.1 -36.3 303.8 0L0 0Z" fill="#669294"></path><path d="M0 -253.1C49.8 -249.7 99.6 -246.3 126.6 -219.2C153.5 -192.1 157.5 -141.4 174.8 -100.9C192.1 -60.5 222.6 -30.2 253.1 0L0 0Z" fill="#82a69e"></path><path d="M0 -202.5C39.9 -199.8 79.7 -197 101.2 -175.4C122.8 -153.7 126 -113.1 139.9 -80.8C153.7 -48.4 178.1 -24.2 202.5 0L0 0Z" fill="#a1baaa"></path><path d="M0 -151.9C29.9 -149.8 59.8 -147.8 75.9 -131.5C92.1 -115.3 94.5 -84.8 104.9 -60.6C115.3 -36.3 133.6 -18.1 151.9 0L0 0Z" fill="#c1ceb9"></path><path d="M0 -101.2C19.9 -99.9 39.9 -98.5 50.6 -87.7C61.4 -76.9 63 -56.6 69.9 -40.4C76.8 -24.2 89 -12.1 101.3 0L0 0Z" fill="#e1e1cd"></path><path d="M0 -50.6C10 -49.9 19.9 -49.3 25.3 -43.8C30.7 -38.4 31.5 -28.3 35 -20.2C38.4 -12.1 44.5 -6 50.6 0L0 0Z" fill="#f0ebd8"></path></g></svg>