<?xml version="1.0" encoding="utf-8"?>
<svg xmlns="http://www.w3.org/2000/svg" viewBox="0 0 500 500">
  <g transform="matrix(1, 0, 0, 1, -1.134788, -6.593992)">
    <path fill="#a79ba7" d="M254.999 125.129c-54.385 0-98.463 44.08-98.463 98.464 0 54.385 44.078 98.465 98.463 98.465s98.465-44.08 98.465-98.465c0-31.493-14.782-59.529-37.788-77.552l31.158-45.318-20.551-13.835 17.332-18.704c1.697.97 3.38 1.968 5.047 2.994l33.874-15.044 39.924 39.922-15.041 33.863a177.997 177.997 0 0 1 21.615 52.143l34.559 13.301v56.46l-34.567 13.304a178.053 178.053 0 0 1-21.611 52.129l15.045 33.873-39.924 39.923-33.863-15.04a177.948 177.948 0 0 1-52.141 21.615l-13.303 34.56h-56.458l-13.306-34.568a178.004 178.004 0 0 1-52.128-21.611l-33.873 15.044L87.54 351.13l15.041-33.863a178.043 178.043 0 0 1-21.616-52.142l-34.558-13.302v-56.458L80.97 182.06a178.048 178.048 0 0 1 21.613-52.132L87.54 96.058l39.924-39.924 33.872 15.044a178.03 178.03 0 0 1 52.128-21.61L226.771 15h56.458l13.306 34.568c3.669.873 7.306 1.863 10.904 2.965l-13.64 43.627 15.39 10.277-16.966 25.978c-11.483-4.693-24.05-7.286-37.224-7.286z" opacity="1" data-original="#a79ba7" class=""/>
    <path fill="#837683" d="m342.364 69.534 1.251-1.35.779.448zm33.248-10.325 6.924-3.075 39.924 39.922-15.041 33.863a177.997 177.997 0 0 1 21.615 52.143l34.559 13.301v56.46l-34.567 13.304a178.053 178.053 0 0 1-21.611 52.129l15.045 33.873-39.924 39.923-6.924-3.075 36.848-36.848-15.045-33.873a178.053 178.053 0 0 0 21.611-52.129l34.567-13.304v-56.46l-34.559-13.301a177.997 177.997 0 0 0-21.615-52.143l15.041-33.863zm-31.205 319.35a177.88 177.88 0 0 1-47.875 19.068l-13.303 34.56h-10l13.303-34.56a177.948 177.948 0 0 0 52.141-21.615zm-188.803-.004-28.14 12.497-3.076-3.075 26.949-11.969c1.412.869 2.834 1.718 4.267 2.547z" opacity="1" data-original="#837683" class=""/>
    <path fill="#fe646f" d="m291.678 270.768 92.794 160.691c7.628 13.204 7.628 29.157 0 42.361-7.628 13.223-21.451 21.18-36.707 21.18H162.216c-15.256 0-29.06-7.957-36.688-21.18-7.628-13.204-7.628-29.157 0-42.361l92.774-160.691c7.628-13.223 21.432-21.199 36.688-21.199s29.06 7.976 36.688 21.199z" opacity="1" data-original="#fe646f"/>
    <path fill="#fd4755" d="M249.99 249.858a43.124 43.124 0 0 1 5-.289c15.256 0 29.06 7.976 36.688 21.199l92.794 160.691c7.628 13.204 7.628 29.157 0 42.361-7.628 13.223-21.451 21.18-36.707 21.18h-10c15.256 0 29.079-7.957 36.707-21.18 7.628-13.204 7.628-29.157 0-42.361l-92.794-160.691c-6.785-11.761-18.455-19.371-31.688-20.91z" opacity="1" data-original="#fd4755"/>
    <path fill="#ffe177" d="m272.55 281.804 92.794 160.691c3.679 6.389 3.679 13.9 0 20.289-3.698 6.37-10.203 10.145-17.579 10.145H162.216c-7.357 0-13.882-3.775-17.56-10.145-3.679-6.389-3.679-13.9 0-20.289l92.774-160.691c3.679-6.389 10.203-10.145 17.56-10.145 7.377 0 13.882 3.756 17.56 10.145z" opacity="1" data-original="#ffe177"/>
    <path fill="#ffd064" d="M172.216 472.929h-10c-7.357 0-13.882-3.775-17.56-10.145-3.679-6.389-3.679-13.9 0-20.289l92.774-160.691c3.679-6.389 10.203-10.145 17.56-10.145 1.724 0 3.401.205 5.004.601-5.255 1.298-9.745 4.648-12.564 9.544l-92.774 160.691c-3.679 6.389-3.679 13.9 0 20.289 3.678 6.37 10.203 10.145 17.56 10.145z" opacity="1" data-original="#ffd064"/>
    <g fill="#fe646f" style="">
      <path d="M254.99 403.851a9.04 9.04 0 0 1-9.041-8.731l-2.304-63.386c-.077-2.555.775-4.782 2.536-6.621 1.782-1.839 3.969-2.769 6.525-2.769h4.569c2.555 0 4.762.93 6.524 2.769 1.781 1.839 2.633 4.066 2.536 6.621l-2.284 63.386c-.174 4.879-4.182 8.731-9.061 8.731zM254.99 439.184c6.389 0 11.597-5.208 11.597-11.597s-5.208-11.597-11.597-11.597-11.597 5.208-11.597 11.597 5.208 11.597 11.597 11.597z" fill="#fe646f" opacity="1" data-original="#fe646f"/>
    </g>
  </g>
</svg>