<?xml version="1.0" encoding="utf-8"?>
<svg xmlns="http://www.w3.org/2000/svg"
     version="1.1"
     viewBox="50 30 410 410">
  <clipPath id="text-limit-box">
    <rect x="180" y="260" width="230" height="50" /> 
  </clipPath>
  <g transform="matrix(1.426793, 0.410946, -0.204498, 1.631289, 351.855927, 312.679962)" style="transform-origin: 33.908px 32.793px;">
    <circle cx="32" cy="32" r="30" fill="#686868" opacity="1" data-original="#686868" class=""/>
    <circle cx="32" cy="32" r="21" fill="#474747" opacity="1" data-original="#474747" class=""/>
    <circle cx="32" cy="32" r="17" fill="#f2f2f2" opacity="1" data-original="#f2f2f2"/>
    <circle cx="32" cy="32" r="17" fill="#f2f2f2" opacity="1" data-original="#f2f2f2"/>
    <g fill="#b5b5b5">
      <path d="M33 15.05c-.333-.019-.662-.05-1-.05s-.667.031-1 .05V30h2zM31 48.95c.333.019.662.05 1 .05s.667-.031 1-.05V34h-2zM34 33h14.95c.019-.333.05-.662.05-1s-.031-.667-.05-1H34zM15 32c0 .338.031.667.05 1H30v-2H15.05c-.019.333-.05.662-.05 1z" fill="#b5b5b5" opacity="1" data-original="#b5b5b5"/>
      <path d="M43.28 19.306 32.607 29.979l1.414 1.414L44.694 20.72a17.151 17.151 0 0 0-1.414-1.414zM19.306 20.72l10.673 10.673 1.414-1.414L20.72 19.306a17.151 17.151 0 0 0-1.414 1.414zM44.694 43.28 34.021 32.606l-1.415 1.415L43.28 44.694a17.151 17.151 0 0 0 1.414-1.414zM19.306 43.28a17.151 17.151 0 0 0 1.414 1.414l10.673-10.673-1.414-1.414z" fill="#b5b5b5" opacity="1" data-original="#b5b5b5"/>
    </g>
    <path fill="#474747" d="M32 2c-.335 0-.667.014-1 .025v2.561l-1.707 1.707 1.414 1.414 2-2A1 1 0 0 0 33 5V2.025C32.667 2.014 32.335 2 32 2z" opacity="1" data-original="#474747" class=""/>
    <path d="M31.293 58.293A1 1 0 0 0 31 59v2.975c.333.011.665.025 1 .025s.667-.014 1-.025v-2.561l1.707-1.707-1.414-1.414z" fill="#000000" opacity="1" data-original="#000000"/>
    <path fill="#474747" d="M 31.293 58.293 C 31.105 58.48 31 58.735 31 59 L 31 61.975 C 31.333 61.986 31.665 62 32 62 C 32.335 62 32.667 61.986 33 61.975 L 33 59.414 L 34.707 57.707 L 33.293 56.293 L 31.293 58.293 Z M 57.707 29.293 L 56.293 30.707 L 58.293 32.707 C 58.48 32.895 58.735 33 59 33 L 61.975 33 C 61.986 32.667 62 32.335 62 32 C 62 31.665 61.986 31.333 61.975 31 L 59.414 31 L 57.707 29.293 Z M 52.489 10.1 L 50.589 12 L 48 12 L 48 14 L 51 14 C 51.265 14 51.52 13.895 51.707 13.707 L 53.907 11.507 C 53.45 11.023 52.977 10.554 52.489 10.1 Z M 52 49.86 L 52 48 L 50 48 L 50 51 C 50 51.265 50.105 51.52 50.293 51.707 L 52.493 53.907 C 52.98 53.452 53.451 52.981 53.907 52.493 L 52 49.86 Z M 12.293 50.293 L 10.093 52.493 C 10.548 52.98 11.019 53.451 11.507 53.907 L 13.407 52.007 L 16 52.007 L 16 50 L 13 50 C 12.735 50 12.48 50.105 12.293 50.293 Z M 2.025 33 L 5.586 33 L 7.293 34.707 L 8.707 33.293 L 6.707 31.293 C 6.52 31.105 6.265 31 6 31 L 2.025 31 C 2.014 31.333 2 31.665 2 32 C 2 32.335 2.014 32.667 2.025 33 Z M 10.1 11.511 L 12 13.411 L 12 16 L 14 16 L 14 13 C 14 12.735 13.894 12.481 13.707 12.294 L 11.507 10.094 C 11.023 10.551 10.554 11.023 10.1 11.511 Z" opacity="1" data-original="#474747" class=""/>
    <circle cx="32" cy="32" r="3" fill="#686868" opacity="1" data-original="#686868" class=""/>
    <path fill="#939393" d="M29 32a2.98 2.98 0 0 0 .758 1.976c.082.006.159.024.242.024a2.987 2.987 0 0 0 2.242-4.976C32.16 29.018 32.083 29 32 29a3 3 0 0 0-3 3z" opacity="1" data-original="#939393"/>
  </g>
  <g transform="matrix(0.861639, 0, 0, 0.823836, 32.592125, 46.77676)" style="">
    <path fill="#e68a51" d="m213.115 152.081-149.81 36.176 286.853 50.646 89.801-50.646z" opacity="1" data-original="#e87935"/>
    <path fill="#ce795a" d="M63.305 188.257v166.914a18.605 18.605 0 0 0 13.408 17.865l273.444 79.518v-213.65z" opacity="1" data-original="#cc653e"/>
    <path fill="#ad684f" d="M439.959 188.257v191.925a22.42 22.42 0 0 1-9.903 18.601l-79.898 53.77v-213.65z" opacity="1" data-original="#b35836"/>
    <g fill="#ff9c5e">
      <path d="m350.158 238.903 30.643 49.653L475 226.135l-35.041-37.878zM213.115 152.081l33.197-15.605 223.581 30.076-29.934 21.705zM63.305 188.257l-30.36-30.785 145.507-35.927 34.663 30.536z" fill="#ff9c5e" opacity="1" data-original="#ff9c5e"/>
    </g>
    <path fill="#ff7d4d30" d="M63.305 203.89v151.28a18.605 18.605 0 0 0 13.41 17.865l271.31 78.898z" opacity="1" data-original="#ff7d4d30"/>
  </g>
  <g transform="matrix(1.626187, 0.468376, -0.219319, 1.749515, 84.182877, 320.030975)" style="transform-origin: 32px 32px;">
    <circle cx="32" cy="32" r="30" fill="#686868" opacity="1" data-original="#686868" class=""/>
    <circle cx="32" cy="32" r="21" fill="#474747" opacity="1" data-original="#474747" class=""/>
    <circle cx="32" cy="32" r="17" fill="#f2f2f2" opacity="1" data-original="#f2f2f2"/>
    <circle cx="32" cy="32" r="17" fill="#f2f2f2" opacity="1" data-original="#f2f2f2"/>
    <g fill="#b5b5b5">
      <path d="M33 15.05c-.333-.019-.662-.05-1-.05s-.667.031-1 .05V30h2zM31 48.95c.333.019.662.05 1 .05s.667-.031 1-.05V34h-2zM34 33h14.95c.019-.333.05-.662.05-1s-.031-.667-.05-1H34zM15 32c0 .338.031.667.05 1H30v-2H15.05c-.019.333-.05.662-.05 1z" fill="#b5b5b5" opacity="1" data-original="#b5b5b5"/>
      <path d="M43.28 19.306 32.607 29.979l1.414 1.414L44.694 20.72a17.151 17.151 0 0 0-1.414-1.414zM19.306 20.72l10.673 10.673 1.414-1.414L20.72 19.306a17.151 17.151 0 0 0-1.414 1.414zM44.694 43.28 34.021 32.606l-1.415 1.415L43.28 44.694a17.151 17.151 0 0 0 1.414-1.414zM19.306 43.28a17.151 17.151 0 0 0 1.414 1.414l10.673-10.673-1.414-1.414z" fill="#b5b5b5" opacity="1" data-original="#b5b5b5"/>
    </g>
    <path fill="#474747" d="M32 2c-.335 0-.667.014-1 .025v2.561l-1.707 1.707 1.414 1.414 2-2A1 1 0 0 0 33 5V2.025C32.667 2.014 32.335 2 32 2z" opacity="1" data-original="#474747" class=""/>
    <path d="M31.293 58.293A1 1 0 0 0 31 59v2.975c.333.011.665.025 1 .025s.667-.014 1-.025v-2.561l1.707-1.707-1.414-1.414z" fill="#000000" opacity="1" data-original="#000000"/>
    <path fill="#474747" d="M 31.293 58.293 C 31.105 58.48 31 58.735 31 59 L 31 61.975 C 31.333 61.986 31.665 62 32 62 C 32.335 62 32.667 61.986 33 61.975 L 33 59.414 L 34.707 57.707 L 33.293 56.293 L 31.293 58.293 Z M 57.707 29.293 L 56.293 30.707 L 58.293 32.707 C 58.48 32.895 58.735 33 59 33 L 61.975 33 C 61.986 32.667 62 32.335 62 32 C 62 31.665 61.986 31.333 61.975 31 L 59.414 31 L 57.707 29.293 Z M 52.489 10.1 L 50.589 12 L 48 12 L 48 14 L 51 14 C 51.265 14 51.52 13.895 51.707 13.707 L 53.907 11.507 C 53.45 11.023 52.977 10.554 52.489 10.1 Z M 52 49.86 L 52 48 L 50 48 L 50 51 C 50 51.265 50.105 51.52 50.293 51.707 L 52.493 53.907 C 52.98 53.452 53.451 52.981 53.907 52.493 L 52 49.86 Z M 12.293 50.293 L 10.093 52.493 C 10.548 52.98 11.019 53.451 11.507 53.907 L 13.407 52.007 L 16 52.007 L 16 50 L 13 50 C 12.735 50 12.48 50.105 12.293 50.293 Z M 2.025 33 L 5.586 33 L 7.293 34.707 L 8.707 33.293 L 6.707 31.293 C 6.52 31.105 6.265 31 6 31 L 2.025 31 C 2.014 31.333 2 31.665 2 32 C 2 32.335 2.014 32.667 2.025 33 Z M 10.1 11.511 L 12 13.411 L 12 16 L 14 16 L 14 13 C 14 12.735 13.894 12.481 13.707 12.294 L 11.507 10.094 C 11.023 10.551 10.554 11.023 10.1 11.511 Z" opacity="1" data-original="#474747" class=""/>
    <circle cx="32" cy="32" r="3" fill="#686868" opacity="1" data-original="#686868" class=""/>
    <path fill="#939393" d="M29 32a2.98 2.98 0 0 0 .758 1.976c.082.006.159.024.242.024a2.987 2.987 0 0 0 2.242-4.976C32.16 29.018 32.083 29 32 29a3 3 0 0 0-3 3z" opacity="1" data-original="#939393"/>
  </g>
  <g transform="matrix(1.74349, 0.502162, -0.233479, 1.86247, 264.117493, 352.272522)" style="transform-origin: 32px 32px;">
    <circle cx="32" cy="32" r="30" fill="#686868" opacity="1" data-original="#686868" class=""/>
    <circle cx="32" cy="32" r="21" fill="#474747" opacity="1" data-original="#474747" class=""/>
    <circle cx="32" cy="32" r="17" fill="#f2f2f2" opacity="1" data-original="#f2f2f2"/>
    <circle cx="32" cy="32" r="17" fill="#f2f2f2" opacity="1" data-original="#f2f2f2"/>
    <g fill="#b5b5b5">
      <path d="M33 15.05c-.333-.019-.662-.05-1-.05s-.667.031-1 .05V30h2zM31 48.95c.333.019.662.05 1 .05s.667-.031 1-.05V34h-2zM34 33h14.95c.019-.333.05-.662.05-1s-.031-.667-.05-1H34zM15 32c0 .338.031.667.05 1H30v-2H15.05c-.019.333-.05.662-.05 1z" fill="#b5b5b5" opacity="1" data-original="#b5b5b5"/>
      <path d="M43.28 19.306 32.607 29.979l1.414 1.414L44.694 20.72a17.151 17.151 0 0 0-1.414-1.414zM19.306 20.72l10.673 10.673 1.414-1.414L20.72 19.306a17.151 17.151 0 0 0-1.414 1.414zM44.694 43.28 34.021 32.606l-1.415 1.415L43.28 44.694a17.151 17.151 0 0 0 1.414-1.414zM19.306 43.28a17.151 17.151 0 0 0 1.414 1.414l10.673-10.673-1.414-1.414z" fill="#b5b5b5" opacity="1" data-original="#b5b5b5"/>
    </g>
    <path fill="#474747" d="M32 2c-.335 0-.667.014-1 .025v2.561l-1.707 1.707 1.414 1.414 2-2A1 1 0 0 0 33 5V2.025C32.667 2.014 32.335 2 32 2z" opacity="1" data-original="#474747" class=""/>
    <path d="M31.293 58.293A1 1 0 0 0 31 59v2.975c.333.011.665.025 1 .025s.667-.014 1-.025v-2.561l1.707-1.707-1.414-1.414z" fill="#000000" opacity="1" data-original="#000000"/>
    <path fill="#474747" d="M 31.293 58.293 C 31.105 58.48 31 58.735 31 59 L 31 61.975 C 31.333 61.986 31.665 62 32 62 C 32.335 62 32.667 61.986 33 61.975 L 33 59.414 L 34.707 57.707 L 33.293 56.293 L 31.293 58.293 Z M 57.707 29.293 L 56.293 30.707 L 58.293 32.707 C 58.48 32.895 58.735 33 59 33 L 61.975 33 C 61.986 32.667 62 32.335 62 32 C 62 31.665 61.986 31.333 61.975 31 L 59.414 31 L 57.707 29.293 Z M 52.489 10.1 L 50.589 12 L 48 12 L 48 14 L 51 14 C 51.265 14 51.52 13.895 51.707 13.707 L 53.907 11.507 C 53.45 11.023 52.977 10.554 52.489 10.1 Z M 52 49.86 L 52 48 L 50 48 L 50 51 C 50 51.265 50.105 51.52 50.293 51.707 L 52.493 53.907 C 52.98 53.452 53.451 52.981 53.907 52.493 L 52 49.86 Z M 12.293 50.293 L 10.093 52.493 C 10.548 52.98 11.019 53.451 11.507 53.907 L 13.407 52.007 L 16 52.007 L 16 50 L 13 50 C 12.735 50 12.48 50.105 12.293 50.293 Z M 2.025 33 L 5.586 33 L 7.293 34.707 L 8.707 33.293 L 6.707 31.293 C 6.52 31.105 6.265 31 6 31 L 2.025 31 C 2.014 31.333 2 31.665 2 32 C 2 32.335 2.014 32.667 2.025 33 Z M 10.1 11.511 L 12 13.411 L 12 16 L 14 16 L 14 13 C 14 12.735 13.894 12.481 13.707 12.294 L 11.507 10.094 C 11.023 10.551 10.554 11.023 10.1 11.511 Z" opacity="1" data-original="#474747" class=""/>
    <circle cx="32" cy="32" r="3" fill="#686868" opacity="1" data-original="#686868" class=""/>
    <path fill="#939393" d="M29 32a2.98 2.98 0 0 0 .758 1.976c.082.006.159.024.242.024a2.987 2.987 0 0 0 2.242-4.976C32.16 29.018 32.083 29 32 29a3 3 0 0 0-3 3z" opacity="1" data-original="#939393"/>
  </g>
  <g transform="matrix(0.444709, 0.007658, -0.005222, 0.466794, -26.117546, -111.007019)" style="transform-origin: 284.68px 264.562px;">
    <path d="M 399.411 399.939 C 399.411 407.934 397.757 415.674 394.665 423.015 C 380.133 423.732 363.193 425.665 360.712 428.827 C 358.115 432.138 340.236 436.469 334.506 432.56 C 314.793 419.11 257.084 444.575 237.69 431.342 C 234.553 429.201 229.151 429.949 223.647 430.827 C 257.637 422.505 286.82 410.253 303.088 389.51 C 309.251 381.651 334.35 385.153 344.193 378.653 C 356.701 370.392 370.214 364.693 384.263 359.673 C 393.931 371.677 399.411 385.384 399.411 399.939 Z" style="" fill="#b1b9c6" data-original="#b1b9c6"/>
    <path d="M 383.624 440.988 C 369.656 437.155 339.459 448.906 327.881 441.007 C 321.266 436.494 299.754 445.591 292.988 440.974 C 275.142 428.798 242.342 450.129 220.994 443.725 C 206.609 439.409 176.459 450.081 164.312 441.793 C 164.308 441.79 164.305 441.788 164.301 441.785 C 184.638 438.819 204.875 435.422 223.647 430.827 C 229.151 429.949 234.553 429.202 237.69 431.342 C 257.084 444.575 314.793 419.11 334.506 432.56 C 340.236 436.469 358.115 432.138 360.712 428.827 C 363.192 425.665 380.132 423.732 394.665 423.015 C 392.004 429.33 388.279 435.351 383.624 440.988 Z" style="" fill="#b1b9c6" data-original="#b1b9c6"/>
    <path d="M 148.305 399.147 C 148.305 351.832 198.626 314.267 270.063 314.267 C 319.525 314.267 362.502 332.655 384.263 359.673 C 370.214 364.693 356.701 370.393 344.193 378.653 C 334.35 385.153 309.251 381.651 303.088 389.51 C 286.821 410.251 257.639 422.504 223.652 430.826 C 217.624 431.787 211.473 432.906 208.038 430.562 C 197.423 423.32 170.245 437.196 159.63 429.953 C 158.423 429.129 156.8 428.459 154.846 427.916 C 150.579 418.894 148.305 409.205 148.305 399.147 Z" style="" fill="#b1b9c6" data-original="#b1b9c6"/>
    <path d="M 164.301 441.785 C 163.806 441.448 163.238 441.111 162.606 440.777 C 159.554 436.677 156.956 432.378 154.846 427.916 C 156.8 428.459 158.423 429.13 159.63 429.953 C 170.245 437.196 197.423 423.32 208.038 430.562 C 211.473 432.906 217.624 431.787 223.652 430.826 C 204.879 435.422 184.64 438.82 164.301 441.785 Z" style="" fill="#b1b9c6" data-original="#b1b9c6"/>
    <path d="M 270.063 485.61 C 222.015 485.61 183.52 467.901 163.463 441.907 C 163.742 441.866 164.022 441.826 164.301 441.785 C 164.305 441.788 164.308 441.79 164.312 441.793 C 176.459 450.081 206.609 439.409 220.994 443.725 C 242.342 450.129 275.142 428.798 292.988 440.974 C 299.754 445.591 321.266 436.494 327.881 441.007 C 339.458 448.906 369.656 437.155 383.624 440.988 C 361.668 467.577 319.045 485.61 270.063 485.61 Z" style="" fill="#b1b9c6" data-original="#b1b9c6"/>
    <path d="M 162.606 440.777 C 163.238 441.111 163.806 441.448 164.301 441.785 C 164.022 441.826 163.742 441.866 163.463 441.907 C 163.174 441.532 162.888 441.155 162.606 440.777 Z" style="" fill="#b1b9c6" data-original="#b1b9c6"/>
    <path d="M 436.281 221.876 C 437.499 241.334 436.398 260.912 432.953 280.636 C 426.228 319.134 398.063 350.136 360.323 360.272 C 331.177 368.088 301.845 372.92 272.326 374.768 C 242.807 376.616 213.101 375.48 183.208 371.36 C 144.499 366.01 112.687 338.762 101.213 301.404 C 95.336 282.263 91.801 262.975 90.582 243.517 C 88.658 212.789 95.312 164.839 122.433 133.778 L 391.015 116.964 C 405.474 129.861 415.916 147.025 423.123 164.786 C 419.171 166.396 389.899 198.676 386.918 202.478 C 375.722 216.754 330.715 222.99 305.119 226.636 L 305.119 226.636 C 330.715 222.99 375.722 216.754 386.918 202.478 C 388.473 200.495 397.179 190.766 405.715 181.681 C 409.983 177.139 414.208 172.758 417.475 169.587 C 419.109 168.002 420.503 166.719 421.543 165.869 C 422.063 165.444 422.495 165.128 422.824 164.937 C 422.936 164.872 423.035 164.821 423.123 164.786 C 431.248 184.81 435.261 205.592 436.281 221.876 Z" style="" fill="#b1b9c6" data-original="#b1b9c6"/>
    <path d="M 244.987 381.134 C 224.215 381.134 203.283 379.694 182.458 376.823 C 162.436 374.056 143.751 365.672 128.422 352.579 C 113.121 339.51 101.892 322.374 95.948 303.025 C 89.982 283.595 86.328 263.691 85.086 243.866 C 83.046 211.281 90.514 161.95 118.273 130.16 C 121.063 126.965 126.266 127.988 127.638 132.002 C 128.275 133.865 127.869 135.926 126.574 137.409 C 101.015 166.679 94.177 212.679 96.086 243.177 C 97.273 262.14 100.772 281.187 106.484 299.79 C 117.28 334.94 147.693 360.892 183.964 365.905 C 213.353 369.956 242.968 371.089 271.983 369.272 C 300.999 367.456 330.24 362.638 358.897 354.954 C 394.259 345.456 421.198 315.914 427.526 279.692 C 430.873 260.519 431.969 241.185 430.782 222.224 C 429.802 206.568 426.025 187.147 418.657 168.454 C 421.292 165.96 423.107 164.493 423.489 164.753 C 433.055 171.28 432.297 187.193 438.447 196.932 C 440.225 205.665 441.311 214.011 441.782 221.535 C 443.023 241.358 441.88 261.563 438.383 281.588 C 434.9 301.528 425.896 319.93 412.344 334.805 C 398.767 349.708 381.274 360.356 361.754 365.598 C 332.388 373.473 302.418 378.41 272.672 380.272 C 263.495 380.847 254.255 381.134 244.987 381.134 Z" style="" fill="#678490" data-original="#678490"/>
    <path d="M 387.341 121.084 C 384.174 118.262 385.25 113.069 389.278 111.738 C 391.147 111.12 393.204 111.546 394.674 112.856 C 418.906 134.453 432.523 167.841 438.447 196.932 C 432.297 187.193 433.055 171.28 423.489 164.753 C 423.107 164.492 421.292 165.96 418.657 168.454 C 411.672 150.733 401.459 133.666 387.341 121.084 Z" style="" fill="#678490" data-original="#678490"/>
    <path d="M 71.579 36.596 C 78.005 29.312 87.232 25.243 99.021 24.505 C 127.529 22.721 169.746 41.394 201.812 58.475 C 214.626 55.94 230.602 54.073 249.394 52.897 L 254.917 52.551 C 273.709 51.374 289.793 51.234 302.825 52.176 C 332.509 31.205 372.043 7.413 400.575 5.627 C 412.363 4.889 422.026 7.775 429.311 14.201 C 454.31 36.255 442.943 85.641 427.56 125.844 C 443.268 151.858 448.843 187.638 450.158 206.487 C 447.811 205.038 445.486 203.536 443.188 201.968 C 431.565 194.037 434.996 172.604 423.489 164.753 C 421.742 163.561 390.028 198.512 386.918 202.478 C 375.722 216.754 330.715 222.99 305.119 226.636 L 305.119 226.636 C 330.715 222.99 375.722 216.754 386.918 202.478 C 388.473 200.495 397.179 190.766 405.715 181.681 C 409.983 177.139 414.208 172.758 417.475 169.587 C 419.109 168.002 420.503 166.719 421.543 165.869 C 422.063 165.444 422.495 165.128 422.824 164.937 C 422.988 164.841 423.127 164.777 423.239 164.745 C 423.35 164.714 423.434 164.716 423.489 164.753 C 429.242 168.678 431.261 175.999 433.295 183.33 C 435.329 190.661 437.377 198.002 443.188 201.968 C 445.485 203.535 447.811 205.038 450.158 206.487 C 450.186 206.894 450.213 207.294 450.237 207.685 C 451.523 228.227 450.333 249.172 446.706 269.923 C 445.585 276.347 443.918 282.663 441.723 288.803 L 441.699 288.804 C 337.182 335.203 220.116 344.422 109.918 315.225 C 98.714 312.256 89.662 303.755 86.245 292.68 L 86.187 292.491 C 80.024 272.353 76.232 251.72 74.946 231.177 C 73.788 212.681 74.63 175.517 87.214 147.149 C 66.962 109.176 49.548 61.568 71.579 36.596 Z" style="" fill="var(--c-cat)" data-original="var(--c-cat)" class=""/>
    <path d="M 108.56 320.581 C 95.507 317.127 84.955 307.066 81.022 294.326 L 80.952 294.099 C 74.638 273.548 70.769 252.491 69.457 231.521 C 68.939 223.25 67.135 181.14 81.145 147.396 C 52.735 93.358 48.126 54.859 67.456 32.948 C 74.886 24.527 85.393 19.835 98.686 19.003 C 115.185 17.974 146.569 23.018 202.685 52.715 C 215.295 50.321 230.882 48.533 249.059 47.395 L 254.582 47.049 C 272.706 45.915 288.394 45.738 301.253 46.524 C 330.389 26.114 370.639 1.979 400.24 0.126 C 413.527 -0.706 424.544 2.639 432.966 10.068 C 454.864 29.386 455.103 68.155 433.681 125.328 C 451.766 157.071 455.229 199.07 455.746 207.339 C 455.8 208.194 455.849 209.05 455.894 209.907 C 451.985 207.652 448.118 205.28 444.324 202.736 C 442.985 188.483 438.287 154.253 422.874 128.687 C 421.998 127.235 421.84 125.46 422.445 123.875 C 448.042 56.871 438.329 29.498 425.672 18.333 C 419.523 12.908 411.195 10.484 400.926 11.126 C 379.103 12.492 346.28 28.235 306.006 56.653 C 304.969 57.388 303.709 57.739 302.441 57.648 C 289.714 56.753 273.841 56.887 255.267 58.05 L 249.744 58.396 C 231.114 59.562 215.354 61.415 202.899 63.903 C 201.649 64.153 200.351 63.961 199.226 63.361 C 158.065 41.402 124.921 29.894 102.966 29.894 C 101.733 29.894 100.536 29.93 99.375 30.003 C 89.105 30.646 81.146 34.09 75.72 40.24 C 64.549 52.904 58.323 81.281 92.11 144.551 C 92.91 146.049 92.975 147.833 92.285 149.385 C 78.162 181.162 79.953 222.807 80.456 230.832 C 81.714 250.939 85.427 271.139 91.489 290.87 L 91.536 291.023 C 94.374 300.213 101.97 307.437 111.379 309.927 C 162.831 323.557 216.145 328.8 269.266 325.454 C 322.491 322.117 374.54 310.298 423.964 290.326 C 432.986 286.68 439.622 278.569 441.278 269.159 L 441.309 268.977 C 444.846 248.612 446.002 228.106 444.745 208.028 C 444.674 206.892 444.545 205.086 444.324 202.736 C 448.118 205.279 451.985 207.652 455.894 209.907 C 456.954 230.024 455.703 250.516 452.169 270.863 C 452.157 270.932 452.145 271.001 452.134 271.07 C 449.823 284.193 440.612 295.487 428.094 300.545 C 377.571 320.962 324.365 333.044 269.955 336.454 C 259.356 337.118 248.74 337.451 238.12 337.452 C 194.414 337.452 150.966 331.803 108.56 320.581 Z" style="" fill="var(--c-edge)" data-original="var(--c-edge)" class=""/>
    <path d="M394.101 109.045a142.476 142.476 0 0 0-49.178-32.176 16.398 16.398 0 0 1 4.678-11.879c13.071-13.469 31.381-28.257 45.291-23.582 24.229 8.164 5.219 64.761-.791 67.637zM118.349 126.308A142.494 142.494 0 0 1 163.13 88.25a16.4 16.4 0 0 0-6.123-11.203c-14.648-11.734-34.661-24.123-47.879-17.749-23.021 11.121 2.9 64.905 9.221 67.01z" style="" fill="#767576" data-original="#767576"/>
    <path d="M382.235 37.715h11.021v44.107h-11.021z" style="" transform="rotate(-58.849 387.757 59.766)" fill="#605c5d" data-original="#605c5d"/>
    <path d="M373.333 46.396h11.022v56.753h-11.022z" style="" transform="rotate(-58.87 378.837 74.77)" fill="#605c5d" data-original="#605c5d"/>
    <path d="M96.458 71.112h44.107v11.022H96.458z" style="" transform="rotate(-38.316 118.513 76.624)" fill="#605c5d" data-original="#605c5d"/>
    <path d="M100.839 84.889h56.753V95.91h-56.753z" style="" transform="rotate(-38.296 129.216 90.4)" fill="#605c5d" data-original="#605c5d"/>
    <path d="M394.103 114.556a5.51 5.51 0 0 1-3.905-1.62c-13.544-13.587-29.449-23.993-47.273-30.931a5.513 5.513 0 0 1-3.511-5.015c-.13-5.947 2.085-11.573 6.238-15.842 20.443-21.067 37.605-29.466 50.997-24.963 6.568 2.213 14.608 8.382 15.631 25.211.756 12.444-2.57 25.499-4.621 32.173-2.481 8.074-6.434 18.177-11.178 20.447a5.503 5.503 0 0 1-2.378.54zm-3.133-9.989zm-40.079-31.223a146.67 146.67 0 0 1 42.396 27.279c4.206-9.03 10.535-30.349 7.163-44.435-1.847-7.715-5.964-9.102-7.317-9.558-8.645-2.904-23.069 5.186-39.576 22.198a10.984 10.984 0 0 0-2.666 4.516zM118.348 131.819a5.493 5.493 0 0 1-1.74-.283c-4.99-1.661-10.172-11.192-13.641-18.894-2.867-6.366-7.796-18.905-8.598-31.346-1.083-16.825 6.125-23.949 12.362-26.962 12.735-6.139 30.806.055 53.72 18.411a21.87 21.87 0 0 1 8.16 14.936 5.511 5.511 0 0 1-2.857 5.414c-16.82 9.107-31.303 21.416-43.048 36.586a5.51 5.51 0 0 1-4.358 2.138zm2.55-10.345c0 .001-.001 0 0 0zm-3.708-58.38c-2.146 0-4.045.385-5.667 1.167-1.282.619-5.194 2.509-6.064 10.394-1.589 14.396 7.349 34.759 12.649 43.195a146.676 146.676 0 0 1 38.662-32.354 10.965 10.965 0 0 0-3.203-4.144c-14.853-11.897-27.654-18.258-36.377-18.258z" style="" fill="var(--c-edge)" data-original var="(--c-edge)" class=""/>
    <path d="M 400.41 252.52 C 380.49 262.64 337.36 281.14 279.11 286.78 C 275.11 287.17 271.04 287.49 266.9 287.75 L 266.87 287.76 C 254.68 288.52 243.01 288.63 231.94 288.25 C 224.64 287.99 217.6 287.53 210.85 286.9 C 177.35 283.77 150.98 276.58 134.84 271.14 C 133.11 270.55 131.5 269.99 130.01 269.45 C 122.28 266.67 117.23 259.22 117.57 251.01 L 119.42 206.07 C 119.9 194.6 130.46 186.27 141.74 188.44 C 149.28 189.89 158.71 191.44 169.82 192.75 C 191.26 195.31 218.98 197.01 251.62 195.53 C 254.73 195.39 257.88 195.22 261.08 195.02 C 265.46 194.74 269.76 194.42 273.96 194.06 C 292.23 192.48 308.8 190.11 323.45 187.4 C 347.09 183.05 365.77 177.81 378.67 173.61 C 388.607 170.371 399.04 175.825 402.27 185.371 C 394.961 193.249 388.263 200.763 386.918 202.478 C 375.722 216.754 330.715 222.99 305.119 226.636 L 305.119 226.636 C 330.715 222.99 375.722 216.754 386.918 202.478 C 388.263 200.762 394.961 193.249 402.27 185.371 C 402.59 186.315 402.839 187.3 403.01 188.32 L 410.45 232.68 C 411.81 240.78 407.73 248.8 400.41 252.52 Z" style="" fill="#98f4f7" data-original="#98f4f7" class=""/>
    <path d="M 251.62 195.53 L 210.85 286.9 C 177.35 283.77 150.98 276.58 134.83999999999997 271.14 L 169.81999999999996 192.75 C 191.25999999999996 195.31 218.97999999999996 197.01 251.61999999999995 195.53 L 251.62 195.53 Z" style="" fill="#ddfcfc" data-original="#ddfcfc"/>
    <path d="M 279.11 286.78 C 275.11 287.17 271.04 287.49 266.9 287.75 L 266.87 287.76 C 254.68 288.52 243.01 288.63 231.94 288.25 L 273.96 194.06 C 292.23 192.48 308.8 190.11 323.45 187.4 L 306 226.511 C 305.704 226.553 305.41 226.595 305.119 226.636 L 305.119 226.636 C 305.41 226.595 305.704 226.553 306 226.511 Z" style="" fill="#ddfcfc" data-original="#ddfcfc"/>
    <path d="M307.265 218.845a5.512 5.512 0 0 1-2.617-10.364l15.609-8.405a5.512 5.512 0 0 1 5.225 9.705l-15.61 8.405a5.5 5.5 0 0 1-2.607.659zM217.535 224.462a5.486 5.486 0 0 1-1.986-.372l-16.535-6.392a5.51 5.51 0 0 1-3.153-7.127 5.51 5.51 0 0 1 7.127-3.153l16.535 6.392a5.512 5.512 0 0 1-1.988 10.652z" style="" fill="#65e1e9" data-original="#65e1e9"/>
    <path d="M287.647 266.318a5.492 5.492 0 0 0-5.845-5.156c-5.88.363-10.965-3.953-11.643-9.724l2.818-.176a5.51 5.51 0 0 0 5.155-5.844 5.493 5.493 0 0 0-5.844-5.156l-17.209 1.077a5.511 5.511 0 0 0 .688 10.999l3.332-.209a10.95 10.95 0 0 1-2.747 7.385 10.962 10.962 0 0 1-7.583 3.714 5.511 5.511 0 0 0 .688 10.999 21.907 21.907 0 0 0 15.159-7.423c.309-.351.607-.71.891-1.076 4.326 4.322 10.405 6.847 16.982 6.432a5.508 5.508 0 0 0 5.158-5.842z" style="" fill="#00d4d7" data-original="#00d4d7"/>
    <path d="M 128.15 274.636 C 118.09 271.017 111.628 261.434 112.067 250.789 L 113.918 205.846 C 114.205 198.795 117.552 192.22 123.085 187.84 C 128.636 183.444 135.829 181.687 142.781 183.031 C 167.613 187.807 208.235 192.81 260.737 189.523 C 313.243 186.236 352.923 176.206 376.964 168.37 C 383.694 166.171 391.049 167.016 397.105 170.685 C 401.18 173.153 404.391 176.737 406.406 180.947 C 403.465 184.068 400.48 187.294 397.752 190.278 L 397.576 189.231 C 396.941 185.435 394.683 182.105 391.392 180.111 C 388.079 178.107 384.057 177.646 380.377 178.849 C 355.729 186.882 315.084 197.163 261.424 200.522 C 207.764 203.881 166.155 198.75 140.697 193.853 C 139.865 193.693 139.02 193.612 138.173 193.612 C 135.199 193.612 132.292 194.606 129.927 196.479 C 126.91 198.867 125.084 202.453 124.929 206.298 L 123.078 251.241 C 122.838 257.05 126.376 262.283 131.88 264.264 C 155.245 272.668 203.813 286.178 266.528 282.256 L 266.567 282.254 C 329.284 278.326 375.775 258.863 397.908 247.61 C 403.122 244.959 405.978 239.326 405.017 233.592 L 397.752 190.278 C 400.266 187.527 402.999 184.572 405.715 181.681 C 405.945 181.436 406.176 181.191 406.406 180.947 C 407.376 182.974 408.068 185.146 408.446 187.408 L 415.887 231.769 C 417.651 242.276 412.433 252.591 402.904 257.435 C 380.012 269.074 331.945 289.205 267.244 293.255 L 267.205 293.258 C 259.322 293.75 251.646 293.976 244.216 293.976 C 190.655 293.978 149.37 282.269 128.15 274.636 Z" style="" fill="var(--c-edge)" data-original="var(--c-edge)" class=""/>
    <path d="M385.294 144.289a5.496 5.496 0 0 1-4.263-2.016c-26.85-32.731-60.002-46.222-83.084-51.776a5.51 5.51 0 0 1-4.069-6.647 5.513 5.513 0 0 1 6.647-4.069c24.724 5.948 60.239 20.406 89.027 55.501a5.511 5.511 0 0 1-4.258 9.007zM253.926 86.246a5.512 5.512 0 0 1-5.482-4.99 5.507 5.507 0 0 1 4.955-6.005c.256-.025 6.367-.594 16.249-.042a5.51 5.51 0 0 1 5.194 5.81 5.484 5.484 0 0 1-5.81 5.194c-8.964-.501-14.528.004-14.584.009-.176.016-.35.024-.522.024z" style="" fill="#ffffff" data-original="#ffffff" class=""/>
    <path d="M216.508 251.812c-.23 0-.462-.014-.696-.044l-37.015-4.662a5.511 5.511 0 1 1 1.378-10.936l37.015 4.662a5.51 5.51 0 0 1-.682 10.98zM312.113 248.228a5.511 5.511 0 0 1-1.521-10.808l35.853-10.313a5.51 5.51 0 1 1 3.047 10.591l-35.853 10.313a5.484 5.484 0 0 1-1.526.217z" style="" fill="#00d4d7" data-original="#00d4d7"/>
    <path d="M 206.454 484.573 C 201.372 490.949 192.054 492.061 185.678 486.978 C 169.179 473.826 157.714 456.178 152.03 436.86 C 157.288 438.328 161.754 440.052 164.301 441.785 C 163.478 441.905 162.655 442.024 161.832 442.143 C 161.372 442.209 160.911 442.275 160.451 442.341 C 160.221 442.374 159.991 442.407 159.76 442.44 C 159.645 442.456 159.53 442.473 159.415 442.489 C 159.357 442.497 159.3 442.505 159.242 442.514 C 159.213 442.518 159.184 442.522 159.156 442.526 C 159.142 442.528 159.127 442.53 159.113 442.532 C 159.106 442.533 159.099 442.534 159.091 442.535 C 159.087 442.536 159.084 442.536 159.08 442.537 C 159.078 442.537 159.076 442.538 159.075 442.538 C 159.075 442.538 159.075 442.538 159.074 442.538 C 159.074 442.538 159.072 442.538 159.072 442.538 C 159.072 442.538 159.071 442.538 159.071 442.538 C 159.071 442.538 159.071 442.538 159.07 442.538 C 159.07 442.538 159.07 442.538 159.07 442.538 C 159.07 442.538 159.07 442.538 159.07 442.538 C 160.814 442.29 162.558 442.039 164.301 441.784 C 164.305 441.787 164.308 441.789 164.312 441.792 C 168.527 444.668 174.909 445.261 182.048 444.989 C 185.19 450.722 189.093 456.082 193.71 460.901 L 208.172 442.747 C 213.056 442.511 217.492 442.673 220.994 443.724 C 226.276 445.309 232.259 445.195 238.544 444.311 Z" style="" fill="#ffffff" data-original="#ffffff" class=""/>
    <path d="M 257.721 420.252 L 246.296 434.587 C 242.955 433.982 240.041 432.946 237.69 431.342 C 234.553 429.202 229.152 429.949 223.649 430.826 C 235.736 427.867 247.215 424.41 257.721 420.252 Z" style="" fill="#ffffff" data-original="#ffffff" class=""/>
    <path d="M 238.544 444.312 C 232.26 445.196 226.276 445.309 220.994 443.725 C 217.492 442.674 213.055 442.512 208.172 442.748 L 216.295 432.551 C 218.769 431.995 221.221 431.421 223.649 430.826 C 229.152 429.948 234.553 429.201 237.69 431.342 C 240.041 432.946 242.955 433.982 246.296 434.587 L 238.544 444.312 Z" style="" fill="#ffffff" data-original="#ffffff" class=""/>
    <path d="M 155.061 371.293 C 158.089 363.72 166.739 360.077 174.309 363.107 L 272.087 402.228 L 257.72 420.253 C 247.216 424.411 235.741 427.866 223.658 430.825 C 221.372 431.19 219.069 431.577 216.902 431.79 L 232.024 412.808 L 174.934 389.96 C 171.449 403.829 172.039 418.227 176.266 431.498 C 169.588 432.428 163.506 432.598 159.631 429.954 C 157.469 428.479 153.974 427.496 149.631 426.852 C 146.229 408.604 147.844 389.348 155.061 371.295 L 155.061 371.293 Z" style="" fill="#ffffff" data-original="#ffffff" class=""/>
    <path d="M 179.319 439.5 C 174.332 440.296 169.319 441.054 164.3 441.786 C 161.753 440.053 157.286 438.328 152.029 436.861 C 151.06 433.568 150.259 430.227 149.63 426.851 C 153.973 427.495 157.468 428.478 159.63 429.953 C 163.505 432.597 169.587 432.427 176.265 431.497 C 177.131 434.217 178.151 436.889 179.319 439.5 Z" style="" fill="#ffffff" data-original="#ffffff" class=""/>
    <path d="M 216.294 432.552 L 216.901 431.789 C 219.068 431.576 221.371 431.189 223.657 430.824 C 221.226 431.419 218.771 431.994 216.293 432.551 L 216.294 432.552 Z" style="" fill="#ffffff" data-original="#ffffff" class=""/>
    <path d="M 182.048 444.99 C 174.909 445.261 168.527 444.668 164.312 441.793 C 164.308 441.79 164.305 441.788 164.301 441.785 C 169.32 441.053 174.334 440.295 179.32 439.499 C 180.154 441.362 181.063 443.194 182.048 444.99 Z" style="" fill="#ffffff" data-original="#ffffff" class=""/>
    <path d="M 283.828 406.925 C 291.388 401.886 297.896 396.131 303.088 389.51 C 305.649 386.244 311.479 384.94 318.126 384.065 L 312.116 391.609 L 369.206 414.457 C 373.22 398.511 371.834 381.854 365.717 367.011 C 373.207 363.671 380.928 360.801 388.798 358.079 C 397.069 378.441 398.621 401.345 392.486 423.131 C 378.487 423.927 363.069 425.822 360.712 428.827 C 359.479 430.399 354.8 432.201 349.613 433.242 L 283.828 406.925 Z" style="" fill="#ffffff" data-original="#ffffff" class=""/>
    <path d="M 389.084 433.146 C 387.737 436.515 385.277 439.107 382.293 440.679 C 378.439 439.928 373.575 440.143 368.301 440.718 L 349.613 433.242 C 354.8 432.201 359.479 430.399 360.712 428.827 C 363.069 425.822 378.487 423.927 392.486 423.131 C 391.537 426.501 390.404 429.844 389.084 433.146 Z" style="" fill="#ffffff" data-original="#ffffff" class=""/>
    <path d="M 358.47 317.462 C 372.22 328.424 382.473 342.509 388.798 358.079 C 380.927 360.801 373.207 363.671 365.717 367.011 C 362.169 358.404 357.031 350.407 350.431 343.513 L 318.126 384.065 C 311.479 384.94 305.649 386.244 303.088 389.51 C 297.896 396.13 291.388 401.886 283.828 406.925 L 272.088 402.228 L 337.691 319.871 C 342.772 313.492 352.093 312.379 358.47 317.462 Z" style="" fill="#ffffff" data-original="#ffffff" class=""/>
    <path d="M 369.836 441.332 L 368.301 440.718 C 373.576 440.143 378.44 439.927 382.293 440.679 C 378.572 442.639 374.038 443.014 369.836 441.332 Z" style="" fill="#ffffff" data-original="#ffffff" class=""/>
    <path d="M 194.791 495.686 C 190.98 495.69 187.264 494.608 184.068 492.589 C 189.702 492.709 194.862 493.327 198.715 495.312 C 198.212 495.409 197.704 495.486 197.191 495.545 C 196.389 495.64 195.588 495.686 194.792 495.686 L 194.791 495.686 Z" style="" fill="#e3e3e3" data-original="#e3e3e3"/>
    <path d="M 182.243 491.287 C 164.376 477.044 151.828 457.787 145.955 435.596 C 145.932 435.511 145.91 435.425 145.888 435.34 C 150.531 436.354 154.926 437.6 158.462 438.943 C 158.859 440.122 159.278 441.29 159.718 442.447 C 159.688 442.451 159.657 442.456 159.627 442.46 C 159.658 442.456 159.689 442.451 159.719 442.447 C 165.735 458.261 175.769 472.029 189.115 482.668 C 191.03 484.199 193.48 484.894 195.913 484.598 C 198.368 484.318 200.611 483.073 202.147 481.137 L 223.405 454.466 C 227.446 455.353 231.342 456.385 234.89 457.738 L 210.764 488.006 C 207.741 491.817 203.46 494.4 198.716 495.311 C 194.863 493.325 189.703 492.708 184.069 492.588 C 183.439 492.19 182.83 491.756 182.244 491.286 L 182.243 491.287 Z" style="" fill="#e3e3e3" data-original="#e3e3e3"/>
    <path d="M 230.992 444.947 C 236.006 444.867 241.347 443.975 246.78 442.821 L 234.89 457.739 C 231.342 456.385 227.446 455.354 223.405 454.467 L 230.992 444.947 Z" style="" fill="#e3e3e3" data-original="#e3e3e3"/>
    <path d="M 247.771 423.893 C 255.095 421.414 262.042 418.656 268.507 415.558 L 252.817 435.244 C 248.131 435.079 243.966 434.39 240.576 432.92 L 247.771 423.893 Z" style="" fill="#e3e3e3" data-original="#e3e3e3"/>
    <path d="M 246.778 442.821 C 241.345 443.975 236.004 444.867 230.99 444.947 L 240.577 432.919 C 243.967 434.39 248.131 435.079 252.818 435.243 L 246.778 442.821 Z" style="" fill="#e3e3e3" data-original="#e3e3e3"/>
    <path d="M 149.943 369.246 C 151.956 364.214 155.822 360.273 160.829 358.15 C 165.778 356.037 171.364 355.979 176.355 357.99 L 274.133 397.111 C 277.562 398.483 278.697 402.774 276.395 405.662 L 268.507 415.558 C 262.042 418.656 255.095 421.414 247.771 423.893 L 263.157 404.589 L 172.263 368.222 C 171.158 367.779 169.979 367.55 168.788 367.549 C 167.547 367.549 166.309 367.799 165.132 368.297 C 162.871 369.244 161.085 371.06 160.178 373.338 C 153.174 390.855 151.579 409.69 155.495 428.105 C 152.422 427.168 148.437 426.579 143.91 426.22 C 140.607 407.003 142.65 387.485 149.941 369.246 L 149.943 369.246 Z" style="" fill="#e3e3e3" data-original="#e3e3e3"/>
    <path d="M 156.61 432.776 C 157.162 434.861 157.779 436.918 158.461 438.943 C 154.925 437.6 150.53 436.354 145.887 435.34 C 145.093 432.312 144.435 429.27 143.911 426.22 C 148.438 426.579 152.423 427.168 155.496 428.105 C 155.828 429.665 156.199 431.223 156.611 432.776 L 156.61 432.776 Z" style="" fill="#e3e3e3" data-original="#e3e3e3"/>
    <path d="M 193.708 466.413 C 192.206 466.413 190.769 465.8 189.729 464.715 C 184.085 458.825 179.433 452.144 175.85 444.962 C 179.656 445.181 183.861 444.964 188.188 444.59 C 189.782 447.269 191.558 449.848 193.51 452.304 L 200.659 443.33 C 205.878 442.818 210.89 442.464 215.204 442.76 L 198.018 464.333 C 196.973 465.646 195.386 466.412 193.708 466.412 L 193.708 466.413 Z" style="" fill="#e3e3e3" data-original="#e3e3e3"/>
    <path d="M 224.97 430.501 L 224.863 430.635 C 224.463 430.697 224.061 430.76 223.659 430.824 C 224.097 430.717 224.534 430.609 224.97 430.5 L 224.97 430.501 Z" style="" fill="#e3e3e3" data-original="#e3e3e3"/>
    <path d="M 215.204 442.761 C 210.89 442.465 205.878 442.82 200.659 443.331 L 207.793 434.376 C 213.175 433.273 218.473 432.095 223.659 430.825 C 224.061 430.761 224.463 430.697 224.863 430.636 L 215.204 442.761 Z" style="" fill="#e3e3e3" data-original="#e3e3e3"/>
    <path d="M 169.588 388.615 C 170.402 385.378 173.882 383.601 176.981 384.841 L 234.071 407.688 C 237.498 409.061 238.633 413.349 236.333 416.237 L 224.971 430.5 C 224.531 430.609 224.091 430.718 223.649 430.826 C 218.682 431.618 213.632 432.517 210.087 431.497 L 223.096 415.167 L 179.017 397.526 C 177.29 408.663 178.315 420.038 181.814 430.611 C 177.975 431.275 174.185 431.877 170.723 432.06 C 166.496 418.101 165.963 403.036 169.587 388.615 L 169.588 388.615 Z" style="" fill="#e3e3e3" data-original="#e3e3e3"/>
    <path d="M 184.993 438.574 C 181.257 439.196 177.502 439.794 173.735 440.373 C 172.583 437.657 171.578 434.881 170.724 432.06 C 174.186 431.877 177.976 431.275 181.815 430.611 C 182.713 433.324 183.774 435.985 184.994 438.574 L 184.993 438.574 Z" style="" fill="#e3e3e3" data-original="#e3e3e3"/>
    <path d="M 207.794 434.375 L 210.087 431.497 C 213.632 432.517 218.683 431.618 223.649 430.826 C 218.466 432.095 213.171 433.273 207.794 434.375 Z" style="" fill="#e3e3e3" data-original="#e3e3e3"/>
    <path d="M 188.188 444.591 C 183.861 444.965 179.657 445.181 175.85 444.963 C 175.098 443.455 174.392 441.924 173.735 440.374 C 177.501 439.795 181.257 439.197 184.993 438.575 C 185.96 440.628 187.026 442.636 188.189 444.591 L 188.188 444.591 Z" style="" fill="#e3e3e3" data-original="#e3e3e3"/>
    <path d="M 398.18 368.847 C 402.93 386.797 402.935 405.238 398.273 422.86 C 394.562 422.996 390.582 423.217 386.647 423.523 C 391.787 406.701 392.116 388.929 387.546 371.662 C 386.479 367.629 385.166 363.705 383.617 359.904 C 387.056 358.668 390.528 357.475 394.026 356.297 C 395.655 360.36 397.043 364.549 398.18 368.847 Z" style="" fill="#e3e3e3" data-original="#e3e3e3"/>
    <path d="M 394.192 435.188 C 392.944 438.309 390.982 441.011 388.476 443.119 C 387.954 442.978 387.519 442.795 387.184 442.566 C 381.295 438.548 369.252 440.492 357.189 442.197 L 324.148 428.979 C 328.211 429.547 331.734 430.669 334.506 432.56 C 339.202 435.764 352.06 433.432 357.976 430.664 L 371.879 436.226 C 374.174 437.15 376.742 437.123 379.017 436.151 C 381.281 435.204 383.069 433.385 383.977 431.105 C 384.977 428.603 385.868 426.074 386.647 423.523 C 390.582 423.216 394.562 422.995 398.273 422.86 C 397.172 427.021 395.812 431.136 394.192 435.188 Z" style="" fill="#e3e3e3" data-original="#e3e3e3"/>
    <path d="M 278.035 410.531 C 281.985 408.232 285.698 405.77 289.143 403.127 L 357.976 430.664 C 352.06 433.432 339.203 435.764 334.506 432.56 C 331.734 430.669 328.21 429.547 324.148 428.979 L 278.035 410.531 Z" style="" fill="#e3e3e3" data-original="#e3e3e3"/>
    <path d="M 270.045 407.335 C 266.623 405.966 265.49 401.684 267.787 398.802 L 333.39 316.445 C 336.731 312.23 341.612 309.518 346.956 308.906 C 352.353 308.274 357.663 309.786 361.899 313.163 C 376.302 324.645 387.248 339.387 394.026 356.297 C 390.528 357.475 387.056 358.669 383.617 359.904 C 377.529 344.963 367.799 331.935 355.041 321.765 C 353.116 320.229 350.7 319.545 348.233 319.832 C 345.775 320.113 343.529 321.36 341.992 323.299 L 280.999 399.869 L 289.143 403.127 C 285.698 405.77 281.985 408.232 278.035 410.531 L 270.045 407.335 Z" style="" fill="#e3e3e3" data-original="#e3e3e3"/>
    <path d="M 367.793 446.439 L 357.189 442.197 C 369.252 440.492 381.294 438.548 387.184 442.566 C 387.519 442.795 387.953 442.977 388.476 443.119 C 386.945 444.407 385.21 445.473 383.311 446.278 C 380.797 447.349 378.092 447.903 375.359 447.906 C 372.767 447.904 370.198 447.406 367.793 446.439 Z" style="" fill="#e3e3e3" data-original="#e3e3e3"/>
    <path d="M 367.161 419.564 L 310.072 396.716 C 306.651 395.346 305.519 391.065 307.815 388.183 L 309.824 385.661 C 314.31 384.351 320.126 383.815 325.866 383.176 L 321.026 389.251 L 365.132 406.903 C 367.11 394.184 365.492 381.146 360.691 369.344 C 363.99 367.749 367.338 366.263 370.73 364.856 C 377.304 380.819 378.83 398.765 374.541 415.801 C 373.924 418.245 371.726 419.957 369.206 419.957 C 368.506 419.957 367.812 419.823 367.162 419.564 L 367.161 419.564 Z" style="" fill="#e3e3e3" data-original="#e3e3e3"/>
    <path d="M 346.129 340.087 C 347.118 338.845 348.595 338.091 350.181 338.02 C 351.768 337.943 353.309 338.56 354.404 339.711 C 361.436 347.056 366.927 355.625 370.729 364.856 C 367.338 366.263 363.989 367.749 360.69 369.344 C 358.183 363.183 354.809 357.359 350.625 352.094 L 325.865 383.176 C 320.125 383.815 314.31 384.351 309.823 385.661 L 346.129 340.087 Z" style="" fill="#e3e3e3" data-original="#e3e3e3"/>
    <path d="M 223.488 375.25 C 247.615 400.193 272.71 419.027 298.64 422.638 C 303.998 423.384 309.268 430.61 314.653 437.91 C 304.803 449.65 290.186 457.256 273.783 457.751 C 262.576 434.978 228.211 406.419 229.603 387.131 C 229.864 383.511 226.806 379.429 223.457 375.307 C 223.467 375.288 223.478 375.269 223.488 375.25 Z" style="" transform="rotate(-59.822 272.071 402.208)" fill="#767576" data-original="#767576"/>
    <path d="M 272.074 457.777 C 267.518 457.777 263.091 457.229 258.854 456.194 C 254.016 450.262 248.756 444.172 249.073 439.777 C 250.293 422.883 229.087 408.397 217.366 392.483 C 218.449 386.352 220.538 380.568 223.457 375.307 C 226.806 379.43 229.864 383.512 229.603 387.131 C 228.211 406.419 262.577 434.978 273.783 457.751 C 273.215 457.768 272.646 457.777 272.074 457.777 Z" style="" transform="rotate(-59.822 272.071 402.208)" fill="#767576" data-original="#767576"/>
    <path d="M 327.632 402.218 C 327.632 415.806 322.754 428.256 314.653 437.91 C 309.268 430.61 303.998 423.384 298.64 422.638 C 272.71 419.027 247.615 400.193 223.488 375.25 C 232.973 358.197 251.176 346.659 272.074 346.659 C 302.758 346.659 327.632 371.534 327.632 402.218 Z" style="" transform="rotate(-59.822 272.071 402.208)" fill="#767576" data-original="#767576"/>
    <path d="M 216.516 402.218 C 216.516 398.897 216.807 395.644 217.366 392.483 C 229.087 408.397 250.293 422.883 249.073 439.777 C 248.756 444.172 254.016 450.262 258.854 456.194 C 234.553 450.262 216.516 428.346 216.516 402.218 Z" style="" transform="rotate(-59.822 272.071 402.208)" fill="#767576" data-original="#767576"/>
    <path d="M 400.263 404.092 C 382.103 410.207 362.424 400.442 356.309 382.282 C 355.218 379.041 354.632 375.751 354.51 372.499 C 371.389 363.399 389.745 357.753 408.556 351.456 C 410.535 354.894 412.219 358.79 413.631 362.981 C 419.745 381.142 418.423 397.978 400.263 404.092 Z" style="" fill="#b1b9c6" data-original="#b1b9c6"/>
    <path d="M 378.12 338.328 C 392.089 333.624 401.96 339.998 408.556 351.456 C 389.745 357.753 371.388 363.398 354.51 372.499 C 353.948 357.53 363.201 343.352 378.12 338.328 Z" style="" fill="#b1b9c6" data-original="#b1b9c6"/>
    <path d="M 351.086 384.041 C 350.134 381.214 349.516 378.355 349.209 375.504 C 352.752 373.39 356.368 371.455 360.047 369.657 C 359.852 373.241 360.319 376.92 361.532 380.524 C 366.667 395.774 383.251 404.008 398.505 398.87 C 405.213 396.611 409.206 392.63 410.708 386.7 C 412.139 381.054 411.344 373.46 408.408 364.74 C 406.917 360.31 405.161 356.446 403.198 353.24 C 406.729 352.068 410.28 350.887 413.844 349.669 C 415.73 353.071 417.407 356.927 418.854 361.223 C 427.007 385.439 420.872 402.968 402.021 409.315 C 397.898 410.707 393.576 411.418 389.224 411.42 C 372.432 411.42 356.735 400.813 351.087 384.041 L 351.086 384.041 Z" style="" fill="#678490" data-original="#678490"/>
    <path d="M 376.361 333.106 C 391.865 327.885 405.098 333.893 413.843 349.669 C 410.279 350.887 406.729 352.068 403.197 353.24 C 401.295 350.135 399.198 347.647 396.957 345.861 C 393.96 343.473 390.649 342.284 386.944 342.284 C 384.735 342.284 382.384 342.707 379.877 343.551 C 368.23 347.473 360.678 358.073 360.046 369.657 C 356.368 371.455 352.752 373.39 349.208 375.504 C 347.236 357.167 358.174 339.229 376.36 333.106 L 376.361 333.106 Z" style="" fill="#678490" data-original="#678490"/>
    <path d="M 148.304 399.148 C 167.112 395.479 185.332 407.751 189.001 426.559 C 189.18 427.479 189.322 428.397 189.426 429.312 C 178.298 431.05 165.991 434.293 159.63 429.953 C 154.517 426.464 141.946 425.728 128.345 425.718 C 128.382 412.449 133.799 401.978 148.304 399.148 Z" style="" fill="#b1b9c6" data-original="#b1b9c6"/>
    <path d="M 189.341 437.838 C 181.075 439.263 172.696 440.561 164.301 441.785 C 158.254 437.669 141.389 433.609 128.798 432.899 C 128.496 430.437 128.338 428.035 128.345 425.718 C 141.946 425.728 154.517 426.465 159.63 429.953 C 165.991 434.293 178.298 431.05 189.426 429.312 C 189.755 432.201 189.715 435.061 189.341 437.838 Z" style="" fill="#b1b9c6" data-original="#b1b9c6"/>
    <path d="M 187.713 444.631 C 178.354 445.416 169.617 445.412 164.312 441.793 C 164.308 441.79 164.305 441.788 164.301 441.785 C 172.697 440.561 181.076 439.263 189.341 437.838 C 189.027 440.17 188.477 442.445 187.713 444.631 Z" style="" fill="#b1b9c6" data-original="#b1b9c6"/>
    <path d="M 129.636 438.139 C 129.291 436.369 129.009 434.619 128.798 432.899 C 141.389 433.61 158.254 437.669 164.301 441.785 C 163.478 441.905 162.655 442.024 161.832 442.143 C 161.372 442.209 160.911 442.275 160.451 442.341 C 160.221 442.374 159.991 442.407 159.76 442.44 C 159.645 442.456 159.53 442.473 159.415 442.489 C 159.357 442.497 159.3 442.505 159.242 442.514 C 159.213 442.518 159.184 442.522 159.156 442.526 C 159.142 442.528 159.127 442.53 159.113 442.532 C 159.106 442.533 159.099 442.534 159.091 442.535 C 159.087 442.536 159.084 442.536 159.08 442.537 C 159.078 442.537 159.076 442.538 159.075 442.538 C 159.075 442.538 159.075 442.538 159.074 442.538 C 159.074 442.538 159.072 442.538 159.072 442.538 C 159.072 442.538 159.071 442.538 159.071 442.538 C 159.071 442.538 159.071 442.538 159.07 442.538 C 159.07 442.538 159.07 442.538 159.07 442.538 C 159.07 442.538 159.07 442.538 159.07 442.538 C 160.814 442.29 162.558 442.039 164.301 441.784 C 164.305 441.787 164.308 441.789 164.312 441.792 C 169.616 445.411 178.354 445.415 187.713 444.63 C 183.776 455.884 174.137 464.807 161.59 467.255 C 142.783 470.924 133.306 456.946 129.636 438.138 Z" style="" fill="#b1b9c6" data-original="#b1b9c6"/>
    <path d="M 147.25 393.739 C 169.005 389.497 190.166 403.744 194.411 425.504 C 194.613 426.54 194.773 427.575 194.893 428.607 C 191.429 428.929 187.708 429.578 183.984 430.232 C 183.894 429.362 183.765 428.49 183.595 427.615 C 180.88 413.698 168.636 404.014 154.96 404.014 C 153.113 404.014 151.241 404.19 149.361 404.557 C 142.414 405.912 137.932 409.332 135.661 415.013 C 134.476 417.976 133.877 421.606 133.867 425.768 C 130.298 425.701 126.588 425.707 122.866 425.747 C 122.962 408.235 131.469 396.817 147.252 393.739 L 147.25 393.739 Z" style="" fill="#678490" data-original="#678490"/>
    <path d="M 134.426 433.4 C 130.375 432.919 126.514 432.698 123.25 432.824 C 122.98 430.367 122.852 428.006 122.865 425.747 C 126.587 425.707 130.296 425.701 133.866 425.768 C 133.866 425.904 133.866 426.04 133.867 426.176 C 133.365 426.171 132.883 426.172 132.423 426.181 L 132.423 426.181 C 132.423 426.181 132.423 426.181 132.423 426.181 C 132.423 426.181 132.423 426.181 132.423 426.181 C 132.423 426.181 132.423 426.181 132.424 426.181 C 132.424 426.181 132.425 426.181 132.425 426.181 C 132.426 426.181 132.427 426.181 132.427 426.181 C 132.429 426.181 132.43 426.181 132.432 426.181 C 132.435 426.181 132.439 426.181 132.442 426.181 C 132.449 426.181 132.455 426.181 132.462 426.181 C 132.475 426.181 132.488 426.181 132.501 426.18 C 132.527 426.18 132.554 426.179 132.58 426.179 C 132.633 426.178 132.686 426.178 132.74 426.177 C 132.847 426.176 132.955 426.175 133.065 426.175 C 133.284 426.174 133.507 426.174 133.734 426.176 C 133.778 426.176 133.822 426.177 133.866 426.177 C 133.881 428.439 134.068 430.853 134.425 433.4 Z" style="" fill="#678490" data-original="#678490"/>
    <path d="M 194.994 436.839 C 191.218 437.523 187.414 438.177 183.591 438.807 C 184.137 436.037 184.284 433.153 183.983 430.232 C 187.707 429.578 191.428 428.929 194.892 428.607 C 195.214 431.385 195.24 434.141 194.993 436.839 L 194.994 436.839 Z" style="" fill="#678490" data-original="#678490"/>
    <path d="M 193.656 444.059 C 189.566 444.486 185.483 444.877 181.629 445.005 C 182.506 443.031 183.167 440.953 183.59 438.807 C 187.414 438.177 191.218 437.523 194.993 436.839 C 194.768 439.302 194.316 441.717 193.655 444.059 L 193.656 444.059 Z" style="" fill="#678490" data-original="#678490"/>
    <path d="M 155.859 473.346 C 148.093 473.346 141.304 470.5 135.964 464.945 C 130.376 459.132 126.428 450.468 124.228 439.194 C 123.801 437.005 123.475 434.881 123.249 432.824 C 126.513 432.698 130.374 432.92 134.425 433.4 C 134.594 434.6 134.801 435.829 135.046 437.085 C 136.807 446.115 139.872 453.108 143.909 457.308 C 148.15 461.719 153.59 463.206 160.535 461.848 C 170.242 459.954 177.891 453.424 181.629 445.005 C 185.482 444.877 189.566 444.486 193.656 444.059 C 189.662 458.206 178.03 469.662 162.645 472.665 C 160.41 473.11 158.138 473.338 155.859 473.346 Z" style="" fill="#678490" data-original="#678490"/>
    <path d="M 247.756 506.489 L 247.291 442.711 C 264.034 439.109 281.572 433.185 292.988 440.974 C 293.955 441.634 295.224 442.014 296.707 442.193 L 297.174 506.129 L 247.756 506.489 Z" style="" fill="#767576" data-original="#767576"/>
    <path d="M 296.411 401.691 L 296.62 430.255 C 279.14 432.729 260.203 436.742 247.233 434.744 L 247.155 424.101 C 266.767 417.524 283.715 408.965 295.988 397.292 C 296.255 398.719 296.4 400.189 296.411 401.691 Z" style="" fill="#767576" data-original="#767576"/>
    <path d="M 296.707 442.193 C 295.224 442.014 293.955 441.634 292.988 440.974 C 281.571 433.185 264.034 439.108 247.291 442.711 L 247.233 434.743 C 260.203 436.741 279.14 432.729 296.62 430.254 L 296.707 442.193 Z" style="" fill="#767576" data-original="#767576"/>
    <path d="M 246.994 402.051 C 246.894 388.405 257.876 377.262 271.522 377.162 C 283.664 377.078 293.828 385.762 295.988 397.292 C 283.715 408.964 266.767 417.524 247.155 424.101 L 246.994 402.051 Z" style="" fill="#767576" data-original="#767576"/>
    <path d="M 247.798 512.002 L 247.757 512.002 C 245.364 512.002 243.324 510.476 242.564 508.34 C 251.452 507.11 259.515 506.75 264.397 510.081 C 265.37 510.745 266.78 511.334 268.503 511.851 L 247.798 512.002 Z" style="" fill="#605c5d" data-original="#605c5d"/>
    <path d="M 302.315 455.276 L 302.686 506.09 C 302.709 509.134 300.259 511.62 297.215 511.641 L 268.503 511.851 C 266.78 511.334 265.371 510.745 264.397 510.081 C 259.515 506.75 251.452 507.11 242.564 508.34 C 242.363 507.774 242.251 507.165 242.247 506.531 L 241.872 455.293 C 236.878 452.451 232.358 448.948 228.412 444.913 C 235.951 445.248 244.367 443.43 252.793 441.469 L 253.228 500.938 L 291.622 500.659 L 291.178 439.879 C 291.797 440.209 292.4 440.574 292.988 440.974 C 295.011 442.354 298.351 442.509 302.218 442.168 L 302.218 442.174 C 302.221 442.172 302.224 442.169 302.227 442.167 C 307.921 441.664 314.754 440.087 320.197 439.768 C 315.396 445.948 309.372 451.258 302.315 455.276 Z" style="" fill="#605c5d" data-original="#605c5d"/>
    <path d="M 331.111 386.598 C 335.008 401.319 333.128 416.49 326.694 429.425 C 323.12 428.661 319.033 428.423 314.609 428.533 C 321.633 417.139 324.064 403.044 320.458 389.42 C 319.967 387.566 319.377 385.755 318.692 383.993 C 322.351 383.527 326.234 383.176 329.939 382.69 C 330.37 383.974 330.762 385.277 331.111 386.599 L 331.111 386.598 Z" style="" fill="#605c5d" data-original="#605c5d"/>
    <path d="M 320.197 439.768 C 314.754 440.087 307.921 441.664 302.227 442.167 C 307.223 438.389 311.397 433.743 314.609 428.532 C 319.033 428.422 323.12 428.661 326.694 429.424 C 324.881 433.069 322.706 436.537 320.197 439.767 L 320.197 439.768 Z" style="" fill="#605c5d" data-original="#605c5d"/>
    <path d="M 241.483 402.092 C 241.425 394.021 244.513 386.409 250.179 380.66 C 255.844 374.911 263.411 371.712 271.482 371.653 L 271.693 371.652 C 285.124 371.652 296.565 380.466 300.481 392.639 C 297.609 395.888 294.404 398.916 290.9 401.744 L 290.9 401.73 C 290.824 391.194 282.22 382.672 271.694 382.672 L 271.56 382.672 C 266.466 382.695 261.593 384.756 258.028 388.394 C 254.443 392.013 252.454 396.916 252.505 402.01 L 252.652 422.177 C 249.082 423.479 245.413 424.708 241.657 425.871 L 241.483 402.092 Z" style="" fill="#605c5d" data-original="#605c5d"/>
    <path d="M 297.23 358.953 C 285.674 352.233 272.193 350.416 259.274 353.839 C 246.346 357.257 235.527 365.504 228.807 377.06 C 222.086 388.617 220.27 402.099 223.692 415.024 C 225.035 420.088 227.155 424.874 229.947 429.223 C 227.867 429.773 225.766 430.308 223.646 430.827 C 221.932 431.1 220.208 431.386 218.54 431.602 C 216.174 427.293 214.318 422.678 213.037 417.844 C 208.862 402.073 211.078 385.621 219.279 371.519 C 227.48 357.417 240.681 347.354 256.453 343.183 C 272.217 339.007 288.667 341.223 302.77 349.424 C 315.689 356.937 325.221 368.649 329.939 382.688 C 326.234 383.174 322.351 383.525 318.692 383.991 C 314.601 373.472 307.129 364.708 297.23 358.952 L 297.23 358.953 Z" style="" fill="#605c5d" data-original="#605c5d"/>
    <path d="M 218.755 431.99 C 218.683 431.861 218.611 431.731 218.54 431.602 C 220.208 431.387 221.932 431.101 223.646 430.827 C 222.026 431.224 220.396 431.611 218.755 431.99 Z" style="" fill="#605c5d" data-original="#605c5d"/>
    <path d="M 301.922 401.651 L 302.126 429.528 C 298.532 429.962 294.838 430.499 291.114 431.07 L 290.9 401.745 C 294.404 398.917 297.609 395.889 300.481 392.64 C 301.396 395.484 301.9 398.511 301.922 401.652 L 301.922 401.651 Z" style="" fill="#605c5d" data-original="#605c5d"/>
    <path d="M 302.218 442.168 C 298.351 442.509 295.011 442.354 292.988 440.974 C 292.401 440.573 291.797 440.209 291.178 439.879 L 291.114 431.07 C 294.838 430.499 298.531 429.962 302.126 429.528 L 302.218 442.168 Z" style="" fill="#605c5d" data-original="#605c5d"/>
    <path d="M 241.657 425.872 C 245.413 424.709 249.083 423.48 252.652 422.178 L 252.747 435.241 C 248.599 435.091 244.862 434.527 241.711 433.372 L 241.657 425.872 Z" style="" fill="#605c5d" data-original="#605c5d"/>
    <path d="M 241.775 442.03 L 241.712 433.372 C 244.863 434.527 248.6 435.09 252.748 435.241 L 252.794 441.469 C 244.368 443.43 235.952 445.248 228.413 444.913 C 224.639 441.054 221.39 436.708 218.756 431.991 C 220.401 431.611 222.036 431.222 223.66 430.825 C 225.997 430.452 228.315 430.104 230.449 429.99 C 233.51 434.573 237.328 438.65 241.776 442.032 L 241.775 442.03 Z" style="" fill="#605c5d" data-original="#605c5d"/>
    <path d="M 229.947 429.224 C 230.112 429.481 230.279 429.736 230.448 429.989 C 228.314 430.103 225.996 430.452 223.659 430.824 C 225.774 430.306 227.871 429.773 229.947 429.223 L 229.947 429.224 Z" style="" fill="#605c5d" data-original="#605c5d"/>
  </g>
  <path fill="#ffbc9130" d="M 86.257 201.027 L 294.548 289.734 L 53.252 235.037 L 86.257 201.027 Z" opacity="1" data-original="#ffbc9130"/>
  <path fill="#131b2620" d="M 334.302 243.594 L 303.986 305.538 L 86.842 255.5 L 86.358 243.185 L 334.302 243.594 Z" opacity="1" data-original="#131b2620"/>
  <path fill="#ff9c5e" d="M 87.138 201.87 L 54.133 235.88 L 295.43 290.577 L 334.302 243.594 L 87.138 201.87 Z" opacity="1" data-original="#ff9c5e"/>
  <text clip-path="url(#text-limit-box)" class="car-name" style="fill: rgb(255, 255, 255); font-family: &quot;ADLaM Display&quot;; font-size: 26.3156px; line-height: 34.2127px; text-transform: capitalize; white-space: pre; transform-box: fill-box; transform-origin: 114.519px 15.265px;" transform="matrix(1.012069, 0.208881, -0.730277, 1.004518, -100.903633, -41.969219)" x="180.412" y="293.296"></text>
  <defs>
    <style bx:fonts="ADLaM Display">@import url(https://fonts.googleapis.com/css2?family=ADLaM+Display%3Aital%2Cwght%400%2C400&amp;display=swap);</style>
  </defs>
</svg>