<svg width="50" height="35" viewBox="0 0 50 35" fill="none" xmlns="http://www.w3.org/2000/svg">
<path d="M25.0002 33.789C38.3042 33.789 49.0893 27.5088 49.0893 19.7619C49.0893 12.015 38.3042 5.73486 25.0002 5.73486C11.6962 5.73486 0.911133 12.015 0.911133 19.7619C0.911133 27.5088 11.6962 33.789 25.0002 33.789Z" fill="#DDFCFC"/>
<path d="M25.0001 34.6998C18.407 34.6998 12.1949 33.1969 7.50809 30.4677C2.66624 27.6484 0 23.8463 0 19.7618C0 15.6772 2.66641 11.8752 7.50809 9.0559C12.1949 6.32669 18.407 4.82373 25.0001 4.82373C31.5932 4.82373 37.8053 6.32669 42.4921 9.0559C47.3338 11.8752 50 15.6772 50 19.7618C50 23.8462 47.3336 27.6484 42.4921 30.4677C37.8053 33.1969 31.5932 34.6998 25.0001 34.6998ZM25.0001 6.64573C18.7242 6.64573 12.8378 8.06092 8.42505 10.6304C4.16707 13.1099 1.82218 16.3528 1.82218 19.7618C1.82218 23.1707 4.16707 26.4137 8.42505 28.8931C12.8379 31.4626 18.7244 32.8778 25.0001 32.8778C31.2758 32.8778 37.1624 31.4626 41.5751 28.8931C45.8329 26.4137 48.1778 23.1707 48.1778 19.7618C48.1778 16.3528 45.8329 13.1099 41.5751 10.6304C37.1624 8.06075 31.276 6.64573 25.0001 6.64573Z" fill="#65E1E9"/>
<path d="M30.1628 1.26709C23.0883 2.93867 17.6577 7.0652 15.9853 11.509C15.124 10.615 13.8814 9.85458 12.4016 9.4104C9.14037 8.43179 5.98251 9.35171 5.34806 11.4653C4.71394 13.5789 6.84326 16.0856 10.1043 17.0644C10.2278 17.1014 10.3503 17.1305 10.4732 17.1621C10.3774 17.2454 10.2808 17.3262 10.1871 17.4147C7.70914 19.7493 6.92691 22.9442 8.43997 24.5503C9.95319 26.1564 13.1889 25.5658 15.6672 23.2311C16.7916 22.1715 17.5625 20.9355 17.9326 19.7505C21.4169 22.9757 28.1203 24.2354 35.1948 22.5638" fill="#D4AFB7"/>
<path d="M35.191 22.5659C38.157 21.8651 39.435 16.5295 38.0454 10.6487C36.6557 4.76785 33.1247 0.568661 30.1586 1.26953C27.1926 1.97041 25.9146 7.30594 27.3043 13.1868C28.6939 19.0676 32.2249 23.2668 35.191 22.5659Z" fill="#FFBF8C"/>
<path d="M34.368 11.5172C34.8051 13.3673 34.403 15.0457 33.4701 15.2662C32.5369 15.4867 31.4262 14.1656 30.9891 12.3155C30.5521 10.4654 30.9541 8.78701 31.8871 8.56649C32.8202 8.34614 33.9309 9.66726 34.368 11.5172Z" fill="white"/>
<path d="M33.2524 16.202C32.5872 16.202 31.9228 15.8402 31.3451 15.153C30.7865 14.4888 30.3448 13.5552 30.1013 12.5245C29.8576 11.4938 29.8348 10.4611 30.0372 9.61723C30.2909 8.55729 30.8731 7.86928 31.6765 7.67935C32.4794 7.48958 33.3084 7.84432 34.0098 8.67846C34.5684 9.34266 35.0101 10.2763 35.2536 11.3072C35.4973 12.338 35.5199 13.3705 35.3177 14.2144C35.064 15.2743 34.4818 15.9623 33.6784 16.1521C33.5367 16.1855 33.3946 16.202 33.2524 16.202ZM32.0977 9.45275L32.0929 9.45292C31.918 9.52929 31.497 10.5081 31.8746 12.1054C32.2488 13.69 33.0535 14.3787 33.257 14.3787L33.2618 14.3785C33.4367 14.302 33.8574 13.3232 33.4802 11.726C33.1058 10.1414 32.3012 9.45275 32.0977 9.45275Z" fill="#E3E3E3"/>
<path d="M38.9362 10.4374C38.232 7.45707 36.9743 4.78126 35.3948 2.90272C33.6773 0.860197 31.7518 -0.0360934 29.9683 0.378164C29.9633 0.379321 29.9585 0.37965 29.9536 0.380807C23.3653 1.93749 17.9185 5.64597 15.656 10.0168C14.7947 9.38007 13.7668 8.86928 12.6636 8.538C8.86317 7.39772 5.26675 8.56842 4.47559 11.2039C3.76129 13.586 5.61885 16.2315 8.78928 17.5604C6.54871 20.1676 6.07146 23.365 7.77694 25.1754C8.53768 25.9829 9.59978 26.3734 10.786 26.3732C12.5413 26.373 14.5686 25.5181 16.2921 23.8944C17.1305 23.1046 17.8208 22.1878 18.306 21.233C22.2855 24.1288 28.8159 25.0075 35.4044 23.4509C35.4119 23.4491 35.419 23.4465 35.4262 23.4446C38.9193 22.5965 40.4612 16.8917 38.9362 10.4374ZM34.9855 21.6775C33.9188 21.9298 32.5962 21.2294 31.3579 19.7563C29.9582 18.0919 28.8351 15.6835 28.1952 12.9753C27.6598 10.7091 27.5201 8.39964 27.8021 6.4725C27.8336 6.23504 27.7703 5.99474 27.6259 5.8036C27.4815 5.61246 27.2677 5.48586 27.0307 5.4512C26.7937 5.41654 26.5525 5.4766 26.3595 5.6184C26.1664 5.76019 26.0369 5.97231 25.9991 6.20884C25.6802 8.38906 25.8265 10.8738 26.4219 13.3942C27.1262 16.3745 28.3838 19.0503 29.9633 20.9289C30.4085 21.4583 30.8677 21.9101 31.3349 22.2827C26.0933 22.7828 21.308 21.6336 18.552 19.0822C18.4391 18.9778 18.3017 18.9036 18.1524 18.8666C18.0031 18.8295 17.8469 18.8309 17.6983 18.8705C17.5498 18.9101 17.4136 18.9867 17.3026 19.0931C17.1916 19.1996 17.1093 19.3323 17.0634 19.4791C16.7252 20.5622 16.0076 21.6593 15.043 22.5682C12.9701 24.5211 10.2496 25.1425 9.1037 23.926C7.95712 22.7089 8.73969 20.0309 10.8121 18.0785C10.8753 18.0191 10.9398 17.9638 11.0044 17.9082L11.0713 17.8504C11.1967 17.7413 11.2899 17.6001 11.3409 17.442C11.3918 17.2838 11.3985 17.1147 11.3603 16.953C11.3221 16.7913 11.2404 16.6431 11.1241 16.5245C11.0077 16.4059 10.8612 16.3213 10.7002 16.2799L10.6138 16.258C10.5315 16.2371 10.4491 16.2166 10.367 16.192C7.63957 15.3734 5.74118 13.3287 6.2214 11.7274C6.70211 10.1259 9.41265 9.46471 12.1404 10.2831C13.41 10.6643 14.5426 11.3242 15.3298 12.1413C15.4365 12.2521 15.5695 12.3341 15.7164 12.3796C15.8633 12.4252 16.0194 12.4327 16.17 12.4017C16.3207 12.3706 16.461 12.3019 16.5779 12.2019C16.6948 12.102 16.7845 11.974 16.8386 11.8301C18.4641 7.51079 23.776 3.71305 30.3718 2.15438L30.3731 2.15421C31.4394 1.90212 32.7621 2.60236 34.0006 4.0754C35.4004 5.74003 36.5235 8.14821 37.1635 10.8564C37.8032 13.5646 37.8768 16.2209 37.3701 18.3359C36.9213 20.2073 36.0523 21.4253 34.9855 21.6775Z" fill="#B78E98"/>
<path d="M24.5676 20.2247C23.3002 20.2247 22.1488 19.3561 21.8451 18.0701C21.6826 17.3909 21.7819 16.6753 22.1233 16.066C21.5454 15.6739 21.1363 15.0785 20.9776 14.3984C20.8921 14.0409 20.8784 13.6701 20.9372 13.3073C20.9961 12.9445 21.1263 12.597 21.3203 12.2849C21.5126 11.9717 21.7651 11.6998 22.0632 11.4848C22.3613 11.2699 22.6991 11.1162 23.057 11.0327C23.1734 11.0052 23.2941 11.0009 23.4122 11.02C23.5303 11.0392 23.6435 11.0814 23.7453 11.1443C23.8471 11.2071 23.9355 11.2894 24.0055 11.3865C24.0754 11.4835 24.1256 11.5934 24.1531 11.7098C24.1807 11.8262 24.185 11.947 24.1658 12.0651C24.1467 12.1832 24.1045 12.2963 24.0416 12.3981C23.9787 12.4999 23.8964 12.5883 23.7994 12.6583C23.7024 12.7283 23.5925 12.7784 23.476 12.806C23.3512 12.8352 23.2335 12.8888 23.1295 12.9637C23.0256 13.0387 22.9375 13.1335 22.8704 13.2427C22.8028 13.3515 22.7574 13.4727 22.7369 13.5991C22.7164 13.7256 22.7212 13.8549 22.751 13.9795C22.8108 14.2311 22.9679 14.4487 23.1879 14.5846C23.408 14.7205 23.6729 14.7636 23.9247 14.7043C24.1598 14.6488 24.4074 14.6889 24.613 14.8159C24.8186 14.9428 24.9653 15.1463 25.0208 15.3814C25.0764 15.6166 25.0363 15.8642 24.9093 16.0697C24.7823 16.2753 24.5789 16.422 24.3437 16.4776C24.2189 16.5068 24.1012 16.5604 23.9972 16.6353C23.8932 16.7103 23.8052 16.8051 23.7381 16.9143C23.6705 17.0231 23.6251 17.1443 23.6046 17.2708C23.5841 17.3972 23.5889 17.5265 23.6187 17.6511C23.6478 17.7759 23.7014 17.8937 23.7763 17.9976C23.8512 18.1015 23.9461 18.1896 24.0553 18.2566C24.1641 18.3242 24.2853 18.3696 24.4118 18.3901C24.5383 18.4106 24.6676 18.4059 24.7922 18.3761C25.0274 18.3205 25.275 18.3607 25.4805 18.4876C25.6861 18.6146 25.8328 18.8181 25.8884 19.0532C25.9439 19.2884 25.9038 19.5359 25.7768 19.7415C25.6499 19.9471 25.4464 20.0938 25.2113 20.1494C24.9954 20.2003 24.7798 20.2247 24.5676 20.2247ZM18.4254 18.0827C17.158 18.0827 16.0068 17.214 15.7031 15.9281C15.6177 15.5707 15.604 15.1998 15.6628 14.8371C15.7215 14.4743 15.8517 14.1268 16.0456 13.8147C16.2379 13.5015 16.4905 13.2295 16.7886 13.0145C17.0867 12.7996 17.4245 12.6459 17.7824 12.5623C17.8988 12.5348 18.0195 12.5305 18.1376 12.5496C18.2557 12.5687 18.3689 12.611 18.4707 12.6738C18.5725 12.7367 18.6609 12.819 18.7308 12.9161C18.8008 13.0131 18.851 13.123 18.8785 13.2394C18.906 13.3558 18.9103 13.4765 18.8912 13.5946C18.8721 13.7127 18.8299 13.8259 18.767 13.9277C18.7041 14.0295 18.6218 14.1179 18.5248 14.1879C18.4277 14.2578 18.3179 14.308 18.2014 14.3355C18.0767 14.3647 17.9589 14.4183 17.855 14.4933C17.7511 14.5682 17.663 14.663 17.5959 14.7721C17.5283 14.881 17.4829 15.0021 17.4624 15.1286C17.442 15.2551 17.4468 15.3844 17.4765 15.509C17.5056 15.6338 17.5592 15.7516 17.6341 15.8556C17.7091 15.9595 17.8039 16.0475 17.9131 16.1146C18.0219 16.1823 18.1431 16.2277 18.2695 16.2482C18.396 16.2687 18.5253 16.2639 18.6499 16.2341C18.8834 16.183 19.1276 16.2257 19.3299 16.353C19.5322 16.4803 19.6764 16.682 19.7314 16.9146C19.7864 17.1473 19.7477 17.3922 19.6238 17.5966C19.4999 17.801 19.3006 17.9485 19.069 18.0073C18.8581 18.0573 18.6421 18.0826 18.4254 18.0827Z" fill="#B78E98"/>
</svg>
