<svg width="280" height="74" viewBox="0 0 280 74" fill="none" xmlns="http://www.w3.org/2000/svg">
<path d="M280 72.8838V69.5337L140 41.4673L0 69.5337L0 72.8838C0 73.18 0 74 0 74C0 74 3.10472 74.0005 4.22535 74.0005L275.775 74.0005C276.895 74.0005 280 74.0001 280 74.0001C280 74.0001 280 73.18 280 72.8838Z" fill="#8DA9C4"/>
<path d="M280 69.5332V65.0664L140 41.4668L0 65.0664L0 69.5332L280 69.5332ZM0 1.11671L0 4.4668L140 32.5332L280 4.4668V1.11671C280 0.82054 280 7.62939e-06 280 7.62939e-06C279.19 7.62939e-06 276.895 7.62939e-06 275.775 7.62939e-06L4.22535 7.62939e-06L1 0H0L0 1.11671Z" fill="#8DA9C4"/>
<path d="M0 4.4668L0 8.9336L140 32.5332L280 8.9336V4.4668L0 4.4668Z" fill="#8DA9C4"/>
<path d="M280 8.93361V16L140 37L0 16L0 8.93361L280 8.93361ZM280 65.0664V58.3662L140 37L0 58.3662L0 65.0664L280 65.0664Z" fill="#748CAB"/>
<path d="M280 16V20.4668L140 37.3662L0 20.4668L0 16L280 16Z" fill="#274157"/>
<path d="M0 58.3662L0 20.1006L280 20.1006V58.3662L0 58.3662Z" fill="#1D2D44"/>
</svg>
